<mxfile host="app.diagrams.net" modified="2021-12-07T17:03:48.356Z" agent="5.0 (Windows NT 10.0; Win64; x64) AppleWebKit/537.36 (KHTML, like Gecko) Chrome/96.0.4664.55 Safari/537.36 Edg/96.0.1054.43" etag="CqlgGffreDLkcHXr0WgS" version="15.9.1" type="github" pages="2">
  <diagram id="R2lEEEUBdFMjLlhIrx00" name="Page-1">
    <mxGraphModel dx="2515" dy="1140" grid="1" gridSize="10" guides="1" tooltips="1" connect="1" arrows="1" fold="1" page="1" pageScale="1" pageWidth="850" pageHeight="1100" math="0" shadow="0" extFonts="Permanent Marker^https://fonts.googleapis.com/css?family=Permanent+Marker">
      <root>
        <mxCell id="0" />
        <mxCell id="1" parent="0" />
        <mxCell id="dnUBaIv1aMOGEJIHoMsu-28" value="Associate" style="shape=table;startSize=30;container=1;collapsible=1;childLayout=tableLayout;fixedRows=1;rowLines=0;fontStyle=1;align=center;resizeLast=1;" parent="1" vertex="1">
          <mxGeometry x="-660" y="120" width="180" height="160" as="geometry" />
        </mxCell>
        <mxCell id="dnUBaIv1aMOGEJIHoMsu-29" value="" style="shape=partialRectangle;collapsible=0;dropTarget=0;pointerEvents=0;fillColor=none;top=0;left=0;bottom=1;right=0;points=[[0,0.5],[1,0.5]];portConstraint=eastwest;" parent="dnUBaIv1aMOGEJIHoMsu-28" vertex="1">
          <mxGeometry y="30" width="180" height="30" as="geometry" />
        </mxCell>
        <mxCell id="dnUBaIv1aMOGEJIHoMsu-30" value="PK" style="shape=partialRectangle;connectable=0;fillColor=none;top=0;left=0;bottom=0;right=0;fontStyle=1;overflow=hidden;" parent="dnUBaIv1aMOGEJIHoMsu-29" vertex="1">
          <mxGeometry width="30" height="30" as="geometry">
            <mxRectangle width="30" height="30" as="alternateBounds" />
          </mxGeometry>
        </mxCell>
        <mxCell id="dnUBaIv1aMOGEJIHoMsu-31" value="A_ID: int" style="shape=partialRectangle;connectable=0;fillColor=none;top=0;left=0;bottom=0;right=0;align=left;spacingLeft=6;fontStyle=5;overflow=hidden;" parent="dnUBaIv1aMOGEJIHoMsu-29" vertex="1">
          <mxGeometry x="30" width="150" height="30" as="geometry">
            <mxRectangle width="150" height="30" as="alternateBounds" />
          </mxGeometry>
        </mxCell>
        <mxCell id="dnUBaIv1aMOGEJIHoMsu-32" value="" style="shape=partialRectangle;collapsible=0;dropTarget=0;pointerEvents=0;fillColor=none;top=0;left=0;bottom=0;right=0;points=[[0,0.5],[1,0.5]];portConstraint=eastwest;" parent="dnUBaIv1aMOGEJIHoMsu-28" vertex="1">
          <mxGeometry y="60" width="180" height="30" as="geometry" />
        </mxCell>
        <mxCell id="dnUBaIv1aMOGEJIHoMsu-33" value="FK" style="shape=partialRectangle;connectable=0;fillColor=none;top=0;left=0;bottom=0;right=0;editable=1;overflow=hidden;" parent="dnUBaIv1aMOGEJIHoMsu-32" vertex="1">
          <mxGeometry width="30" height="30" as="geometry">
            <mxRectangle width="30" height="30" as="alternateBounds" />
          </mxGeometry>
        </mxCell>
        <mxCell id="dnUBaIv1aMOGEJIHoMsu-34" value="NewA_ID: int" style="shape=partialRectangle;connectable=0;fillColor=none;top=0;left=0;bottom=0;right=0;align=left;spacingLeft=6;overflow=hidden;" parent="dnUBaIv1aMOGEJIHoMsu-32" vertex="1">
          <mxGeometry x="30" width="150" height="30" as="geometry">
            <mxRectangle width="150" height="30" as="alternateBounds" />
          </mxGeometry>
        </mxCell>
        <mxCell id="dnUBaIv1aMOGEJIHoMsu-38" value="" style="shape=partialRectangle;collapsible=0;dropTarget=0;pointerEvents=0;fillColor=none;top=0;left=0;bottom=0;right=0;points=[[0,0.5],[1,0.5]];portConstraint=eastwest;" parent="dnUBaIv1aMOGEJIHoMsu-28" vertex="1">
          <mxGeometry y="90" width="180" height="30" as="geometry" />
        </mxCell>
        <mxCell id="dnUBaIv1aMOGEJIHoMsu-39" value="" style="shape=partialRectangle;connectable=0;fillColor=none;top=0;left=0;bottom=0;right=0;editable=1;overflow=hidden;" parent="dnUBaIv1aMOGEJIHoMsu-38" vertex="1">
          <mxGeometry width="30" height="30" as="geometry">
            <mxRectangle width="30" height="30" as="alternateBounds" />
          </mxGeometry>
        </mxCell>
        <mxCell id="dnUBaIv1aMOGEJIHoMsu-40" value="DateOfBirth: Time" style="shape=partialRectangle;connectable=0;fillColor=none;top=0;left=0;bottom=0;right=0;align=left;spacingLeft=6;overflow=hidden;" parent="dnUBaIv1aMOGEJIHoMsu-38" vertex="1">
          <mxGeometry x="30" width="150" height="30" as="geometry">
            <mxRectangle width="150" height="30" as="alternateBounds" />
          </mxGeometry>
        </mxCell>
        <mxCell id="4hPJbG30b4UJLHPw2dgT-89" value="" style="shape=partialRectangle;collapsible=0;dropTarget=0;pointerEvents=0;fillColor=none;top=0;left=0;bottom=0;right=0;points=[[0,0.5],[1,0.5]];portConstraint=eastwest;" parent="dnUBaIv1aMOGEJIHoMsu-28" vertex="1">
          <mxGeometry y="120" width="180" height="30" as="geometry" />
        </mxCell>
        <mxCell id="4hPJbG30b4UJLHPw2dgT-90" value="" style="shape=partialRectangle;connectable=0;fillColor=none;top=0;left=0;bottom=0;right=0;editable=1;overflow=hidden;" parent="4hPJbG30b4UJLHPw2dgT-89" vertex="1">
          <mxGeometry width="30" height="30" as="geometry">
            <mxRectangle width="30" height="30" as="alternateBounds" />
          </mxGeometry>
        </mxCell>
        <mxCell id="4hPJbG30b4UJLHPw2dgT-91" value="Address: str" style="shape=partialRectangle;connectable=0;fillColor=none;top=0;left=0;bottom=0;right=0;align=left;spacingLeft=6;overflow=hidden;" parent="4hPJbG30b4UJLHPw2dgT-89" vertex="1">
          <mxGeometry x="30" width="150" height="30" as="geometry">
            <mxRectangle width="150" height="30" as="alternateBounds" />
          </mxGeometry>
        </mxCell>
        <mxCell id="dnUBaIv1aMOGEJIHoMsu-41" value="Employee" style="shape=table;startSize=30;container=1;collapsible=1;childLayout=tableLayout;fixedRows=1;rowLines=0;fontStyle=1;align=center;resizeLast=1;" parent="1" vertex="1">
          <mxGeometry x="-810" y="350" width="180" height="190" as="geometry" />
        </mxCell>
        <mxCell id="dnUBaIv1aMOGEJIHoMsu-42" value="" style="shape=partialRectangle;collapsible=0;dropTarget=0;pointerEvents=0;fillColor=none;top=0;left=0;bottom=1;right=0;points=[[0,0.5],[1,0.5]];portConstraint=eastwest;" parent="dnUBaIv1aMOGEJIHoMsu-41" vertex="1">
          <mxGeometry y="30" width="180" height="30" as="geometry" />
        </mxCell>
        <mxCell id="dnUBaIv1aMOGEJIHoMsu-43" value="PK" style="shape=partialRectangle;connectable=0;fillColor=none;top=0;left=0;bottom=0;right=0;fontStyle=1;overflow=hidden;" parent="dnUBaIv1aMOGEJIHoMsu-42" vertex="1">
          <mxGeometry width="30" height="30" as="geometry">
            <mxRectangle width="30" height="30" as="alternateBounds" />
          </mxGeometry>
        </mxCell>
        <mxCell id="dnUBaIv1aMOGEJIHoMsu-44" value="E_ID: int" style="shape=partialRectangle;connectable=0;fillColor=none;top=0;left=0;bottom=0;right=0;align=left;spacingLeft=6;fontStyle=5;overflow=hidden;" parent="dnUBaIv1aMOGEJIHoMsu-42" vertex="1">
          <mxGeometry x="30" width="150" height="30" as="geometry">
            <mxRectangle width="150" height="30" as="alternateBounds" />
          </mxGeometry>
        </mxCell>
        <mxCell id="dnUBaIv1aMOGEJIHoMsu-45" value="" style="shape=partialRectangle;collapsible=0;dropTarget=0;pointerEvents=0;fillColor=none;top=0;left=0;bottom=0;right=0;points=[[0,0.5],[1,0.5]];portConstraint=eastwest;" parent="dnUBaIv1aMOGEJIHoMsu-41" vertex="1">
          <mxGeometry y="60" width="180" height="30" as="geometry" />
        </mxCell>
        <mxCell id="dnUBaIv1aMOGEJIHoMsu-46" value="FK" style="shape=partialRectangle;connectable=0;fillColor=none;top=0;left=0;bottom=0;right=0;editable=1;overflow=hidden;" parent="dnUBaIv1aMOGEJIHoMsu-45" vertex="1">
          <mxGeometry width="30" height="30" as="geometry">
            <mxRectangle width="30" height="30" as="alternateBounds" />
          </mxGeometry>
        </mxCell>
        <mxCell id="dnUBaIv1aMOGEJIHoMsu-47" value="J_ID: int" style="shape=partialRectangle;connectable=0;fillColor=none;top=0;left=0;bottom=0;right=0;align=left;spacingLeft=6;overflow=hidden;" parent="dnUBaIv1aMOGEJIHoMsu-45" vertex="1">
          <mxGeometry x="30" width="150" height="30" as="geometry">
            <mxRectangle width="150" height="30" as="alternateBounds" />
          </mxGeometry>
        </mxCell>
        <mxCell id="dnUBaIv1aMOGEJIHoMsu-48" value="" style="shape=partialRectangle;collapsible=0;dropTarget=0;pointerEvents=0;fillColor=none;top=0;left=0;bottom=0;right=0;points=[[0,0.5],[1,0.5]];portConstraint=eastwest;" parent="dnUBaIv1aMOGEJIHoMsu-41" vertex="1">
          <mxGeometry y="90" width="180" height="30" as="geometry" />
        </mxCell>
        <mxCell id="dnUBaIv1aMOGEJIHoMsu-49" value="FK" style="shape=partialRectangle;connectable=0;fillColor=none;top=0;left=0;bottom=0;right=0;editable=1;overflow=hidden;" parent="dnUBaIv1aMOGEJIHoMsu-48" vertex="1">
          <mxGeometry width="30" height="30" as="geometry">
            <mxRectangle width="30" height="30" as="alternateBounds" />
          </mxGeometry>
        </mxCell>
        <mxCell id="dnUBaIv1aMOGEJIHoMsu-50" value="A_ID: int" style="shape=partialRectangle;connectable=0;fillColor=none;top=0;left=0;bottom=0;right=0;align=left;spacingLeft=6;overflow=hidden;" parent="dnUBaIv1aMOGEJIHoMsu-48" vertex="1">
          <mxGeometry x="30" width="150" height="30" as="geometry">
            <mxRectangle width="150" height="30" as="alternateBounds" />
          </mxGeometry>
        </mxCell>
        <mxCell id="dnUBaIv1aMOGEJIHoMsu-51" value="" style="shape=partialRectangle;collapsible=0;dropTarget=0;pointerEvents=0;fillColor=none;top=0;left=0;bottom=0;right=0;points=[[0,0.5],[1,0.5]];portConstraint=eastwest;" parent="dnUBaIv1aMOGEJIHoMsu-41" vertex="1">
          <mxGeometry y="120" width="180" height="30" as="geometry" />
        </mxCell>
        <mxCell id="dnUBaIv1aMOGEJIHoMsu-52" value="FK" style="shape=partialRectangle;connectable=0;fillColor=none;top=0;left=0;bottom=0;right=0;editable=1;overflow=hidden;" parent="dnUBaIv1aMOGEJIHoMsu-51" vertex="1">
          <mxGeometry width="30" height="30" as="geometry">
            <mxRectangle width="30" height="30" as="alternateBounds" />
          </mxGeometry>
        </mxCell>
        <mxCell id="dnUBaIv1aMOGEJIHoMsu-53" value="Supervisor_E_ID: int" style="shape=partialRectangle;connectable=0;fillColor=none;top=0;left=0;bottom=0;right=0;align=left;spacingLeft=6;overflow=hidden;" parent="dnUBaIv1aMOGEJIHoMsu-51" vertex="1">
          <mxGeometry x="30" width="150" height="30" as="geometry">
            <mxRectangle width="150" height="30" as="alternateBounds" />
          </mxGeometry>
        </mxCell>
        <mxCell id="5vu5xH4ea2YrYB_XAuCz-2" value="" style="shape=partialRectangle;collapsible=0;dropTarget=0;pointerEvents=0;fillColor=none;top=0;left=0;bottom=0;right=0;points=[[0,0.5],[1,0.5]];portConstraint=eastwest;" parent="dnUBaIv1aMOGEJIHoMsu-41" vertex="1">
          <mxGeometry y="150" width="180" height="30" as="geometry" />
        </mxCell>
        <mxCell id="5vu5xH4ea2YrYB_XAuCz-3" value="" style="shape=partialRectangle;connectable=0;fillColor=none;top=0;left=0;bottom=0;right=0;editable=1;overflow=hidden;" parent="5vu5xH4ea2YrYB_XAuCz-2" vertex="1">
          <mxGeometry width="30" height="30" as="geometry">
            <mxRectangle width="30" height="30" as="alternateBounds" />
          </mxGeometry>
        </mxCell>
        <mxCell id="5vu5xH4ea2YrYB_XAuCz-4" value="IsFounder: bool" style="shape=partialRectangle;connectable=0;fillColor=none;top=0;left=0;bottom=0;right=0;align=left;spacingLeft=6;overflow=hidden;" parent="5vu5xH4ea2YrYB_XAuCz-2" vertex="1">
          <mxGeometry x="30" width="150" height="30" as="geometry">
            <mxRectangle width="150" height="30" as="alternateBounds" />
          </mxGeometry>
        </mxCell>
        <mxCell id="dnUBaIv1aMOGEJIHoMsu-54" value="Client" style="shape=table;startSize=30;container=1;collapsible=1;childLayout=tableLayout;fixedRows=1;rowLines=0;fontStyle=1;align=center;resizeLast=1;" parent="1" vertex="1">
          <mxGeometry x="-540" y="350" width="180" height="70" as="geometry" />
        </mxCell>
        <mxCell id="dnUBaIv1aMOGEJIHoMsu-55" value="" style="shape=partialRectangle;collapsible=0;dropTarget=0;pointerEvents=0;fillColor=none;top=0;left=0;bottom=1;right=0;points=[[0,0.5],[1,0.5]];portConstraint=eastwest;" parent="dnUBaIv1aMOGEJIHoMsu-54" vertex="1">
          <mxGeometry y="30" width="180" height="30" as="geometry" />
        </mxCell>
        <mxCell id="dnUBaIv1aMOGEJIHoMsu-56" value="PK" style="shape=partialRectangle;connectable=0;fillColor=none;top=0;left=0;bottom=0;right=0;fontStyle=1;overflow=hidden;" parent="dnUBaIv1aMOGEJIHoMsu-55" vertex="1">
          <mxGeometry width="30" height="30" as="geometry">
            <mxRectangle width="30" height="30" as="alternateBounds" />
          </mxGeometry>
        </mxCell>
        <mxCell id="dnUBaIv1aMOGEJIHoMsu-57" value="A_ID: int" style="shape=partialRectangle;connectable=0;fillColor=none;top=0;left=0;bottom=0;right=0;align=left;spacingLeft=6;fontStyle=5;overflow=hidden;" parent="dnUBaIv1aMOGEJIHoMsu-55" vertex="1">
          <mxGeometry x="30" width="150" height="30" as="geometry">
            <mxRectangle width="150" height="30" as="alternateBounds" />
          </mxGeometry>
        </mxCell>
        <mxCell id="dnUBaIv1aMOGEJIHoMsu-67" value="Job" style="shape=table;startSize=30;container=1;collapsible=1;childLayout=tableLayout;fixedRows=1;rowLines=0;fontStyle=1;align=center;resizeLast=1;" parent="1" vertex="1">
          <mxGeometry x="-1060" y="350" width="180" height="160" as="geometry" />
        </mxCell>
        <mxCell id="dnUBaIv1aMOGEJIHoMsu-68" value="" style="shape=partialRectangle;collapsible=0;dropTarget=0;pointerEvents=0;fillColor=none;top=0;left=0;bottom=1;right=0;points=[[0,0.5],[1,0.5]];portConstraint=eastwest;" parent="dnUBaIv1aMOGEJIHoMsu-67" vertex="1">
          <mxGeometry y="30" width="180" height="30" as="geometry" />
        </mxCell>
        <mxCell id="dnUBaIv1aMOGEJIHoMsu-69" value="PK" style="shape=partialRectangle;connectable=0;fillColor=none;top=0;left=0;bottom=0;right=0;fontStyle=1;overflow=hidden;" parent="dnUBaIv1aMOGEJIHoMsu-68" vertex="1">
          <mxGeometry width="30" height="30" as="geometry">
            <mxRectangle width="30" height="30" as="alternateBounds" />
          </mxGeometry>
        </mxCell>
        <mxCell id="dnUBaIv1aMOGEJIHoMsu-70" value="J_ID: int" style="shape=partialRectangle;connectable=0;fillColor=none;top=0;left=0;bottom=0;right=0;align=left;spacingLeft=6;fontStyle=5;overflow=hidden;" parent="dnUBaIv1aMOGEJIHoMsu-68" vertex="1">
          <mxGeometry x="30" width="150" height="30" as="geometry">
            <mxRectangle width="150" height="30" as="alternateBounds" />
          </mxGeometry>
        </mxCell>
        <mxCell id="4hPJbG30b4UJLHPw2dgT-340" value="" style="shape=partialRectangle;collapsible=0;dropTarget=0;pointerEvents=0;fillColor=none;top=0;left=0;bottom=0;right=0;points=[[0,0.5],[1,0.5]];portConstraint=eastwest;" parent="dnUBaIv1aMOGEJIHoMsu-67" vertex="1">
          <mxGeometry y="60" width="180" height="30" as="geometry" />
        </mxCell>
        <mxCell id="4hPJbG30b4UJLHPw2dgT-341" value="" style="shape=partialRectangle;connectable=0;fillColor=none;top=0;left=0;bottom=0;right=0;editable=1;overflow=hidden;" parent="4hPJbG30b4UJLHPw2dgT-340" vertex="1">
          <mxGeometry width="30" height="30" as="geometry">
            <mxRectangle width="30" height="30" as="alternateBounds" />
          </mxGeometry>
        </mxCell>
        <mxCell id="4hPJbG30b4UJLHPw2dgT-342" value="JobName: str" style="shape=partialRectangle;connectable=0;fillColor=none;top=0;left=0;bottom=0;right=0;align=left;spacingLeft=6;overflow=hidden;" parent="4hPJbG30b4UJLHPw2dgT-340" vertex="1">
          <mxGeometry x="30" width="150" height="30" as="geometry">
            <mxRectangle width="150" height="30" as="alternateBounds" />
          </mxGeometry>
        </mxCell>
        <mxCell id="dnUBaIv1aMOGEJIHoMsu-71" value="" style="shape=partialRectangle;collapsible=0;dropTarget=0;pointerEvents=0;fillColor=none;top=0;left=0;bottom=0;right=0;points=[[0,0.5],[1,0.5]];portConstraint=eastwest;" parent="dnUBaIv1aMOGEJIHoMsu-67" vertex="1">
          <mxGeometry y="90" width="180" height="30" as="geometry" />
        </mxCell>
        <mxCell id="dnUBaIv1aMOGEJIHoMsu-72" value="" style="shape=partialRectangle;connectable=0;fillColor=none;top=0;left=0;bottom=0;right=0;editable=1;overflow=hidden;" parent="dnUBaIv1aMOGEJIHoMsu-71" vertex="1">
          <mxGeometry width="30" height="30" as="geometry">
            <mxRectangle width="30" height="30" as="alternateBounds" />
          </mxGeometry>
        </mxCell>
        <mxCell id="dnUBaIv1aMOGEJIHoMsu-73" value="Salary: int" style="shape=partialRectangle;connectable=0;fillColor=none;top=0;left=0;bottom=0;right=0;align=left;spacingLeft=6;overflow=hidden;" parent="dnUBaIv1aMOGEJIHoMsu-71" vertex="1">
          <mxGeometry x="30" width="150" height="30" as="geometry">
            <mxRectangle width="150" height="30" as="alternateBounds" />
          </mxGeometry>
        </mxCell>
        <mxCell id="dnUBaIv1aMOGEJIHoMsu-77" value="" style="shape=partialRectangle;collapsible=0;dropTarget=0;pointerEvents=0;fillColor=none;top=0;left=0;bottom=0;right=0;points=[[0,0.5],[1,0.5]];portConstraint=eastwest;" parent="dnUBaIv1aMOGEJIHoMsu-67" vertex="1">
          <mxGeometry y="120" width="180" height="30" as="geometry" />
        </mxCell>
        <mxCell id="dnUBaIv1aMOGEJIHoMsu-78" value="FK" style="shape=partialRectangle;connectable=0;fillColor=none;top=0;left=0;bottom=0;right=0;editable=1;overflow=hidden;" parent="dnUBaIv1aMOGEJIHoMsu-77" vertex="1">
          <mxGeometry width="30" height="30" as="geometry">
            <mxRectangle width="30" height="30" as="alternateBounds" />
          </mxGeometry>
        </mxCell>
        <mxCell id="dnUBaIv1aMOGEJIHoMsu-79" value="Perm_ID: int" style="shape=partialRectangle;connectable=0;fillColor=none;top=0;left=0;bottom=0;right=0;align=left;spacingLeft=6;overflow=hidden;" parent="dnUBaIv1aMOGEJIHoMsu-77" vertex="1">
          <mxGeometry x="30" width="150" height="30" as="geometry">
            <mxRectangle width="150" height="30" as="alternateBounds" />
          </mxGeometry>
        </mxCell>
        <mxCell id="4hPJbG30b4UJLHPw2dgT-1" value="Department" style="shape=table;startSize=30;container=1;collapsible=1;childLayout=tableLayout;fixedRows=1;rowLines=0;fontStyle=1;align=center;resizeLast=1;" parent="1" vertex="1">
          <mxGeometry x="-540" y="590" width="200" height="200" as="geometry" />
        </mxCell>
        <mxCell id="4hPJbG30b4UJLHPw2dgT-2" value="" style="shape=partialRectangle;collapsible=0;dropTarget=0;pointerEvents=0;fillColor=none;top=0;left=0;bottom=1;right=0;points=[[0,0.5],[1,0.5]];portConstraint=eastwest;" parent="4hPJbG30b4UJLHPw2dgT-1" vertex="1">
          <mxGeometry y="30" width="200" height="40" as="geometry" />
        </mxCell>
        <mxCell id="4hPJbG30b4UJLHPw2dgT-3" value="PK,FK" style="shape=partialRectangle;connectable=0;fillColor=none;top=0;left=0;bottom=0;right=0;fontStyle=1;overflow=hidden;" parent="4hPJbG30b4UJLHPw2dgT-2" vertex="1">
          <mxGeometry width="60" height="40" as="geometry">
            <mxRectangle width="60" height="40" as="alternateBounds" />
          </mxGeometry>
        </mxCell>
        <mxCell id="4hPJbG30b4UJLHPw2dgT-4" value="Dep_ID: int" style="shape=partialRectangle;connectable=0;fillColor=none;top=0;left=0;bottom=0;right=0;align=left;spacingLeft=6;fontStyle=5;overflow=hidden;" parent="4hPJbG30b4UJLHPw2dgT-2" vertex="1">
          <mxGeometry x="60" width="140" height="40" as="geometry">
            <mxRectangle width="140" height="40" as="alternateBounds" />
          </mxGeometry>
        </mxCell>
        <mxCell id="4hPJbG30b4UJLHPw2dgT-5" value="" style="shape=partialRectangle;collapsible=0;dropTarget=0;pointerEvents=0;fillColor=none;top=0;left=0;bottom=0;right=0;points=[[0,0.5],[1,0.5]];portConstraint=eastwest;" parent="4hPJbG30b4UJLHPw2dgT-1" vertex="1">
          <mxGeometry y="70" width="200" height="30" as="geometry" />
        </mxCell>
        <mxCell id="4hPJbG30b4UJLHPw2dgT-6" value="" style="shape=partialRectangle;connectable=0;fillColor=none;top=0;left=0;bottom=0;right=0;editable=1;overflow=hidden;" parent="4hPJbG30b4UJLHPw2dgT-5" vertex="1">
          <mxGeometry width="60" height="30" as="geometry">
            <mxRectangle width="60" height="30" as="alternateBounds" />
          </mxGeometry>
        </mxCell>
        <mxCell id="4hPJbG30b4UJLHPw2dgT-7" value="Dep_Name: str" style="shape=partialRectangle;connectable=0;fillColor=none;top=0;left=0;bottom=0;right=0;align=left;spacingLeft=6;overflow=hidden;" parent="4hPJbG30b4UJLHPw2dgT-5" vertex="1">
          <mxGeometry x="60" width="140" height="30" as="geometry">
            <mxRectangle width="140" height="30" as="alternateBounds" />
          </mxGeometry>
        </mxCell>
        <mxCell id="4hPJbG30b4UJLHPw2dgT-396" value="" style="shape=partialRectangle;collapsible=0;dropTarget=0;pointerEvents=0;fillColor=none;top=0;left=0;bottom=0;right=0;points=[[0,0.5],[1,0.5]];portConstraint=eastwest;" parent="4hPJbG30b4UJLHPw2dgT-1" vertex="1">
          <mxGeometry y="100" width="200" height="30" as="geometry" />
        </mxCell>
        <mxCell id="4hPJbG30b4UJLHPw2dgT-397" value="" style="shape=partialRectangle;connectable=0;fillColor=none;top=0;left=0;bottom=0;right=0;editable=1;overflow=hidden;" parent="4hPJbG30b4UJLHPw2dgT-396" vertex="1">
          <mxGeometry width="60" height="30" as="geometry">
            <mxRectangle width="60" height="30" as="alternateBounds" />
          </mxGeometry>
        </mxCell>
        <mxCell id="4hPJbG30b4UJLHPw2dgT-398" value="Dep_Name: str" style="shape=partialRectangle;connectable=0;fillColor=none;top=0;left=0;bottom=0;right=0;align=left;spacingLeft=6;overflow=hidden;" parent="4hPJbG30b4UJLHPw2dgT-396" vertex="1">
          <mxGeometry x="60" width="140" height="30" as="geometry">
            <mxRectangle width="140" height="30" as="alternateBounds" />
          </mxGeometry>
        </mxCell>
        <mxCell id="4hPJbG30b4UJLHPw2dgT-8" value="" style="shape=partialRectangle;collapsible=0;dropTarget=0;pointerEvents=0;fillColor=none;top=0;left=0;bottom=0;right=0;points=[[0,0.5],[1,0.5]];portConstraint=eastwest;" parent="4hPJbG30b4UJLHPw2dgT-1" vertex="1">
          <mxGeometry y="130" width="200" height="30" as="geometry" />
        </mxCell>
        <mxCell id="4hPJbG30b4UJLHPw2dgT-9" value="" style="shape=partialRectangle;connectable=0;fillColor=none;top=0;left=0;bottom=0;right=0;editable=1;overflow=hidden;" parent="4hPJbG30b4UJLHPw2dgT-8" vertex="1">
          <mxGeometry width="60" height="30" as="geometry">
            <mxRectangle width="60" height="30" as="alternateBounds" />
          </mxGeometry>
        </mxCell>
        <mxCell id="4hPJbG30b4UJLHPw2dgT-10" value="" style="shape=partialRectangle;connectable=0;fillColor=none;top=0;left=0;bottom=0;right=0;align=left;spacingLeft=6;overflow=hidden;" parent="4hPJbG30b4UJLHPw2dgT-8" vertex="1">
          <mxGeometry x="60" width="140" height="30" as="geometry">
            <mxRectangle width="140" height="30" as="alternateBounds" />
          </mxGeometry>
        </mxCell>
        <mxCell id="4hPJbG30b4UJLHPw2dgT-11" value="" style="shape=partialRectangle;collapsible=0;dropTarget=0;pointerEvents=0;fillColor=none;top=0;left=0;bottom=0;right=0;points=[[0,0.5],[1,0.5]];portConstraint=eastwest;" parent="4hPJbG30b4UJLHPw2dgT-1" vertex="1">
          <mxGeometry y="160" width="200" height="30" as="geometry" />
        </mxCell>
        <mxCell id="4hPJbG30b4UJLHPw2dgT-12" value="" style="shape=partialRectangle;connectable=0;fillColor=none;top=0;left=0;bottom=0;right=0;editable=1;overflow=hidden;" parent="4hPJbG30b4UJLHPw2dgT-11" vertex="1">
          <mxGeometry width="60" height="30" as="geometry">
            <mxRectangle width="60" height="30" as="alternateBounds" />
          </mxGeometry>
        </mxCell>
        <mxCell id="4hPJbG30b4UJLHPw2dgT-13" value="" style="shape=partialRectangle;connectable=0;fillColor=none;top=0;left=0;bottom=0;right=0;align=left;spacingLeft=6;overflow=hidden;" parent="4hPJbG30b4UJLHPw2dgT-11" vertex="1">
          <mxGeometry x="60" width="140" height="30" as="geometry">
            <mxRectangle width="140" height="30" as="alternateBounds" />
          </mxGeometry>
        </mxCell>
        <mxCell id="4hPJbG30b4UJLHPw2dgT-14" value="ID" style="shape=table;startSize=30;container=1;collapsible=1;childLayout=tableLayout;fixedRows=1;rowLines=0;fontStyle=1;align=center;resizeLast=1;" parent="1" vertex="1">
          <mxGeometry x="-160" y="950" width="180" height="130" as="geometry" />
        </mxCell>
        <mxCell id="4hPJbG30b4UJLHPw2dgT-15" value="" style="shape=partialRectangle;collapsible=0;dropTarget=0;pointerEvents=0;fillColor=none;top=0;left=0;bottom=1;right=0;points=[[0,0.5],[1,0.5]];portConstraint=eastwest;" parent="4hPJbG30b4UJLHPw2dgT-14" vertex="1">
          <mxGeometry y="30" width="180" height="30" as="geometry" />
        </mxCell>
        <mxCell id="4hPJbG30b4UJLHPw2dgT-16" value="PK" style="shape=partialRectangle;connectable=0;fillColor=none;top=0;left=0;bottom=0;right=0;fontStyle=1;overflow=hidden;" parent="4hPJbG30b4UJLHPw2dgT-15" vertex="1">
          <mxGeometry width="30" height="30" as="geometry">
            <mxRectangle width="30" height="30" as="alternateBounds" />
          </mxGeometry>
        </mxCell>
        <mxCell id="4hPJbG30b4UJLHPw2dgT-17" value="I_ID: int " style="shape=partialRectangle;connectable=0;fillColor=none;top=0;left=0;bottom=0;right=0;align=left;spacingLeft=6;fontStyle=5;overflow=hidden;" parent="4hPJbG30b4UJLHPw2dgT-15" vertex="1">
          <mxGeometry x="30" width="150" height="30" as="geometry">
            <mxRectangle width="150" height="30" as="alternateBounds" />
          </mxGeometry>
        </mxCell>
        <mxCell id="4hPJbG30b4UJLHPw2dgT-18" value="" style="shape=partialRectangle;collapsible=0;dropTarget=0;pointerEvents=0;fillColor=none;top=0;left=0;bottom=0;right=0;points=[[0,0.5],[1,0.5]];portConstraint=eastwest;" parent="4hPJbG30b4UJLHPw2dgT-14" vertex="1">
          <mxGeometry y="60" width="180" height="30" as="geometry" />
        </mxCell>
        <mxCell id="4hPJbG30b4UJLHPw2dgT-19" value="FK" style="shape=partialRectangle;connectable=0;fillColor=none;top=0;left=0;bottom=0;right=0;editable=1;overflow=hidden;" parent="4hPJbG30b4UJLHPw2dgT-18" vertex="1">
          <mxGeometry width="30" height="30" as="geometry">
            <mxRectangle width="30" height="30" as="alternateBounds" />
          </mxGeometry>
        </mxCell>
        <mxCell id="4hPJbG30b4UJLHPw2dgT-20" value="ApOK_ID: int" style="shape=partialRectangle;connectable=0;fillColor=none;top=0;left=0;bottom=0;right=0;align=left;spacingLeft=6;overflow=hidden;" parent="4hPJbG30b4UJLHPw2dgT-18" vertex="1">
          <mxGeometry x="30" width="150" height="30" as="geometry">
            <mxRectangle width="150" height="30" as="alternateBounds" />
          </mxGeometry>
        </mxCell>
        <mxCell id="4hPJbG30b4UJLHPw2dgT-21" value="" style="shape=partialRectangle;collapsible=0;dropTarget=0;pointerEvents=0;fillColor=none;top=0;left=0;bottom=0;right=0;points=[[0,0.5],[1,0.5]];portConstraint=eastwest;" parent="4hPJbG30b4UJLHPw2dgT-14" vertex="1">
          <mxGeometry y="90" width="180" height="30" as="geometry" />
        </mxCell>
        <mxCell id="4hPJbG30b4UJLHPw2dgT-22" value="" style="shape=partialRectangle;connectable=0;fillColor=none;top=0;left=0;bottom=0;right=0;editable=1;overflow=hidden;" parent="4hPJbG30b4UJLHPw2dgT-21" vertex="1">
          <mxGeometry width="30" height="30" as="geometry">
            <mxRectangle width="30" height="30" as="alternateBounds" />
          </mxGeometry>
        </mxCell>
        <mxCell id="4hPJbG30b4UJLHPw2dgT-23" value="Revoked: Time" style="shape=partialRectangle;connectable=0;fillColor=none;top=0;left=0;bottom=0;right=0;align=left;spacingLeft=6;overflow=hidden;" parent="4hPJbG30b4UJLHPw2dgT-21" vertex="1">
          <mxGeometry x="30" width="150" height="30" as="geometry">
            <mxRectangle width="150" height="30" as="alternateBounds" />
          </mxGeometry>
        </mxCell>
        <mxCell id="4hPJbG30b4UJLHPw2dgT-40" value="Permission" style="shape=table;startSize=30;container=1;collapsible=1;childLayout=tableLayout;fixedRows=1;rowLines=0;fontStyle=1;align=center;resizeLast=1;" parent="1" vertex="1">
          <mxGeometry x="-1060" y="680" width="180" height="160" as="geometry" />
        </mxCell>
        <mxCell id="4hPJbG30b4UJLHPw2dgT-41" value="" style="shape=partialRectangle;collapsible=0;dropTarget=0;pointerEvents=0;fillColor=none;top=0;left=0;bottom=1;right=0;points=[[0,0.5],[1,0.5]];portConstraint=eastwest;" parent="4hPJbG30b4UJLHPw2dgT-40" vertex="1">
          <mxGeometry y="30" width="180" height="30" as="geometry" />
        </mxCell>
        <mxCell id="4hPJbG30b4UJLHPw2dgT-42" value="PK" style="shape=partialRectangle;connectable=0;fillColor=none;top=0;left=0;bottom=0;right=0;fontStyle=1;overflow=hidden;" parent="4hPJbG30b4UJLHPw2dgT-41" vertex="1">
          <mxGeometry width="30" height="30" as="geometry">
            <mxRectangle width="30" height="30" as="alternateBounds" />
          </mxGeometry>
        </mxCell>
        <mxCell id="4hPJbG30b4UJLHPw2dgT-43" value="Perm_ID: int" style="shape=partialRectangle;connectable=0;fillColor=none;top=0;left=0;bottom=0;right=0;align=left;spacingLeft=6;fontStyle=5;overflow=hidden;" parent="4hPJbG30b4UJLHPw2dgT-41" vertex="1">
          <mxGeometry x="30" width="150" height="30" as="geometry">
            <mxRectangle width="150" height="30" as="alternateBounds" />
          </mxGeometry>
        </mxCell>
        <mxCell id="4hPJbG30b4UJLHPw2dgT-44" value="" style="shape=partialRectangle;collapsible=0;dropTarget=0;pointerEvents=0;fillColor=none;top=0;left=0;bottom=0;right=0;points=[[0,0.5],[1,0.5]];portConstraint=eastwest;" parent="4hPJbG30b4UJLHPw2dgT-40" vertex="1">
          <mxGeometry y="60" width="180" height="30" as="geometry" />
        </mxCell>
        <mxCell id="4hPJbG30b4UJLHPw2dgT-45" value="" style="shape=partialRectangle;connectable=0;fillColor=none;top=0;left=0;bottom=0;right=0;editable=1;overflow=hidden;" parent="4hPJbG30b4UJLHPw2dgT-44" vertex="1">
          <mxGeometry width="30" height="30" as="geometry">
            <mxRectangle width="30" height="30" as="alternateBounds" />
          </mxGeometry>
        </mxCell>
        <mxCell id="4hPJbG30b4UJLHPw2dgT-46" value="CanRepresent: bool" style="shape=partialRectangle;connectable=0;fillColor=none;top=0;left=0;bottom=0;right=0;align=left;spacingLeft=6;overflow=hidden;" parent="4hPJbG30b4UJLHPw2dgT-44" vertex="1">
          <mxGeometry x="30" width="150" height="30" as="geometry">
            <mxRectangle width="150" height="30" as="alternateBounds" />
          </mxGeometry>
        </mxCell>
        <mxCell id="4hPJbG30b4UJLHPw2dgT-47" value="" style="shape=partialRectangle;collapsible=0;dropTarget=0;pointerEvents=0;fillColor=none;top=0;left=0;bottom=0;right=0;points=[[0,0.5],[1,0.5]];portConstraint=eastwest;" parent="4hPJbG30b4UJLHPw2dgT-40" vertex="1">
          <mxGeometry y="90" width="180" height="30" as="geometry" />
        </mxCell>
        <mxCell id="4hPJbG30b4UJLHPw2dgT-48" value="" style="shape=partialRectangle;connectable=0;fillColor=none;top=0;left=0;bottom=0;right=0;editable=1;overflow=hidden;" parent="4hPJbG30b4UJLHPw2dgT-47" vertex="1">
          <mxGeometry width="30" height="30" as="geometry">
            <mxRectangle width="30" height="30" as="alternateBounds" />
          </mxGeometry>
        </mxCell>
        <mxCell id="4hPJbG30b4UJLHPw2dgT-49" value="CanProcess: bool" style="shape=partialRectangle;connectable=0;fillColor=none;top=0;left=0;bottom=0;right=0;align=left;spacingLeft=6;overflow=hidden;" parent="4hPJbG30b4UJLHPw2dgT-47" vertex="1">
          <mxGeometry x="30" width="150" height="30" as="geometry">
            <mxRectangle width="150" height="30" as="alternateBounds" />
          </mxGeometry>
        </mxCell>
        <mxCell id="4hPJbG30b4UJLHPw2dgT-50" value="" style="shape=partialRectangle;collapsible=0;dropTarget=0;pointerEvents=0;fillColor=none;top=0;left=0;bottom=0;right=0;points=[[0,0.5],[1,0.5]];portConstraint=eastwest;" parent="4hPJbG30b4UJLHPw2dgT-40" vertex="1">
          <mxGeometry y="120" width="180" height="30" as="geometry" />
        </mxCell>
        <mxCell id="4hPJbG30b4UJLHPw2dgT-51" value="" style="shape=partialRectangle;connectable=0;fillColor=none;top=0;left=0;bottom=0;right=0;editable=1;overflow=hidden;" parent="4hPJbG30b4UJLHPw2dgT-50" vertex="1">
          <mxGeometry width="30" height="30" as="geometry">
            <mxRectangle width="30" height="30" as="alternateBounds" />
          </mxGeometry>
        </mxCell>
        <mxCell id="4hPJbG30b4UJLHPw2dgT-52" value="Row 3" style="shape=partialRectangle;connectable=0;fillColor=none;top=0;left=0;bottom=0;right=0;align=left;spacingLeft=6;overflow=hidden;" parent="4hPJbG30b4UJLHPw2dgT-50" vertex="1">
          <mxGeometry x="30" width="150" height="30" as="geometry">
            <mxRectangle width="150" height="30" as="alternateBounds" />
          </mxGeometry>
        </mxCell>
        <mxCell id="4hPJbG30b4UJLHPw2dgT-53" value="OKAppointment" style="shape=table;startSize=30;container=1;collapsible=1;childLayout=tableLayout;fixedRows=1;rowLines=0;fontStyle=1;align=center;resizeLast=1;" parent="1" vertex="1">
          <mxGeometry x="-215" y="680" width="390" height="190" as="geometry" />
        </mxCell>
        <mxCell id="4hPJbG30b4UJLHPw2dgT-54" value="" style="shape=partialRectangle;collapsible=0;dropTarget=0;pointerEvents=0;fillColor=none;top=0;left=0;bottom=1;right=0;points=[[0,0.5],[1,0.5]];portConstraint=eastwest;" parent="4hPJbG30b4UJLHPw2dgT-53" vertex="1">
          <mxGeometry y="30" width="390" height="30" as="geometry" />
        </mxCell>
        <mxCell id="4hPJbG30b4UJLHPw2dgT-55" value="PK" style="shape=partialRectangle;connectable=0;fillColor=none;top=0;left=0;bottom=0;right=0;fontStyle=1;overflow=hidden;" parent="4hPJbG30b4UJLHPw2dgT-54" vertex="1">
          <mxGeometry width="30" height="30" as="geometry">
            <mxRectangle width="30" height="30" as="alternateBounds" />
          </mxGeometry>
        </mxCell>
        <mxCell id="4hPJbG30b4UJLHPw2dgT-56" value="ApOK_ID: int" style="shape=partialRectangle;connectable=0;fillColor=none;top=0;left=0;bottom=0;right=0;align=left;spacingLeft=6;fontStyle=5;overflow=hidden;" parent="4hPJbG30b4UJLHPw2dgT-54" vertex="1">
          <mxGeometry x="30" width="360" height="30" as="geometry">
            <mxRectangle width="360" height="30" as="alternateBounds" />
          </mxGeometry>
        </mxCell>
        <mxCell id="4hPJbG30b4UJLHPw2dgT-157" value="" style="shape=partialRectangle;collapsible=0;dropTarget=0;pointerEvents=0;fillColor=none;top=0;left=0;bottom=0;right=0;points=[[0,0.5],[1,0.5]];portConstraint=eastwest;" parent="4hPJbG30b4UJLHPw2dgT-53" vertex="1">
          <mxGeometry y="60" width="390" height="30" as="geometry" />
        </mxCell>
        <mxCell id="4hPJbG30b4UJLHPw2dgT-158" value="FK" style="shape=partialRectangle;connectable=0;fillColor=none;top=0;left=0;bottom=0;right=0;editable=1;overflow=hidden;" parent="4hPJbG30b4UJLHPw2dgT-157" vertex="1">
          <mxGeometry width="30" height="30" as="geometry">
            <mxRectangle width="30" height="30" as="alternateBounds" />
          </mxGeometry>
        </mxCell>
        <mxCell id="4hPJbG30b4UJLHPw2dgT-159" value="Ap_ID: int" style="shape=partialRectangle;connectable=0;fillColor=none;top=0;left=0;bottom=0;right=0;align=left;spacingLeft=6;overflow=hidden;" parent="4hPJbG30b4UJLHPw2dgT-157" vertex="1">
          <mxGeometry x="30" width="360" height="30" as="geometry">
            <mxRectangle width="360" height="30" as="alternateBounds" />
          </mxGeometry>
        </mxCell>
        <mxCell id="4hPJbG30b4UJLHPw2dgT-154" value="" style="shape=partialRectangle;collapsible=0;dropTarget=0;pointerEvents=0;fillColor=none;top=0;left=0;bottom=0;right=0;points=[[0,0.5],[1,0.5]];portConstraint=eastwest;" parent="4hPJbG30b4UJLHPw2dgT-53" vertex="1">
          <mxGeometry y="90" width="390" height="30" as="geometry" />
        </mxCell>
        <mxCell id="4hPJbG30b4UJLHPw2dgT-155" value="FK" style="shape=partialRectangle;connectable=0;fillColor=none;top=0;left=0;bottom=0;right=0;editable=1;overflow=hidden;" parent="4hPJbG30b4UJLHPw2dgT-154" vertex="1">
          <mxGeometry width="30" height="30" as="geometry">
            <mxRectangle width="30" height="30" as="alternateBounds" />
          </mxGeometry>
        </mxCell>
        <mxCell id="4hPJbG30b4UJLHPw2dgT-156" value="ProcessEmp_A_ID: int requires: {perm: process for service}" style="shape=partialRectangle;connectable=0;fillColor=none;top=0;left=0;bottom=0;right=0;align=left;spacingLeft=6;overflow=hidden;" parent="4hPJbG30b4UJLHPw2dgT-154" vertex="1">
          <mxGeometry x="30" width="360" height="30" as="geometry">
            <mxRectangle width="360" height="30" as="alternateBounds" />
          </mxGeometry>
        </mxCell>
        <mxCell id="4hPJbG30b4UJLHPw2dgT-198" value="" style="shape=partialRectangle;collapsible=0;dropTarget=0;pointerEvents=0;fillColor=none;top=0;left=0;bottom=0;right=0;points=[[0,0.5],[1,0.5]];portConstraint=eastwest;" parent="4hPJbG30b4UJLHPw2dgT-53" vertex="1">
          <mxGeometry y="120" width="390" height="30" as="geometry" />
        </mxCell>
        <mxCell id="4hPJbG30b4UJLHPw2dgT-199" value="FK" style="shape=partialRectangle;connectable=0;fillColor=none;top=0;left=0;bottom=0;right=0;editable=1;overflow=hidden;" parent="4hPJbG30b4UJLHPw2dgT-198" vertex="1">
          <mxGeometry width="30" height="30" as="geometry">
            <mxRectangle width="30" height="30" as="alternateBounds" />
          </mxGeometry>
        </mxCell>
        <mxCell id="4hPJbG30b4UJLHPw2dgT-200" value="I_ID: int" style="shape=partialRectangle;connectable=0;fillColor=none;top=0;left=0;bottom=0;right=0;align=left;spacingLeft=6;overflow=hidden;" parent="4hPJbG30b4UJLHPw2dgT-198" vertex="1">
          <mxGeometry x="30" width="360" height="30" as="geometry">
            <mxRectangle width="360" height="30" as="alternateBounds" />
          </mxGeometry>
        </mxCell>
        <mxCell id="4hPJbG30b4UJLHPw2dgT-63" value="" style="shape=partialRectangle;collapsible=0;dropTarget=0;pointerEvents=0;fillColor=none;top=0;left=0;bottom=0;right=0;points=[[0,0.5],[1,0.5]];portConstraint=eastwest;" parent="4hPJbG30b4UJLHPw2dgT-53" vertex="1">
          <mxGeometry y="150" width="390" height="30" as="geometry" />
        </mxCell>
        <mxCell id="4hPJbG30b4UJLHPw2dgT-64" value="" style="shape=partialRectangle;connectable=0;fillColor=none;top=0;left=0;bottom=0;right=0;editable=1;overflow=hidden;" parent="4hPJbG30b4UJLHPw2dgT-63" vertex="1">
          <mxGeometry width="30" height="30" as="geometry">
            <mxRectangle width="30" height="30" as="alternateBounds" />
          </mxGeometry>
        </mxCell>
        <mxCell id="4hPJbG30b4UJLHPw2dgT-65" value="ProcessedDate: Time" style="shape=partialRectangle;connectable=0;fillColor=none;top=0;left=0;bottom=0;right=0;align=left;spacingLeft=6;overflow=hidden;" parent="4hPJbG30b4UJLHPw2dgT-63" vertex="1">
          <mxGeometry x="30" width="360" height="30" as="geometry">
            <mxRectangle width="360" height="30" as="alternateBounds" />
          </mxGeometry>
        </mxCell>
        <mxCell id="4hPJbG30b4UJLHPw2dgT-127" value="NewAssociate" style="shape=table;startSize=30;container=1;collapsible=1;childLayout=tableLayout;fixedRows=1;rowLines=0;fontStyle=1;align=center;resizeLast=1;" parent="1" vertex="1">
          <mxGeometry x="-380" y="120" width="210" height="160" as="geometry" />
        </mxCell>
        <mxCell id="4hPJbG30b4UJLHPw2dgT-128" value="" style="shape=partialRectangle;collapsible=0;dropTarget=0;pointerEvents=0;fillColor=none;top=0;left=0;bottom=1;right=0;points=[[0,0.5],[1,0.5]];portConstraint=eastwest;" parent="4hPJbG30b4UJLHPw2dgT-127" vertex="1">
          <mxGeometry y="30" width="210" height="30" as="geometry" />
        </mxCell>
        <mxCell id="4hPJbG30b4UJLHPw2dgT-129" value="PK" style="shape=partialRectangle;connectable=0;fillColor=none;top=0;left=0;bottom=0;right=0;fontStyle=1;overflow=hidden;" parent="4hPJbG30b4UJLHPw2dgT-128" vertex="1">
          <mxGeometry width="30" height="30" as="geometry">
            <mxRectangle width="30" height="30" as="alternateBounds" />
          </mxGeometry>
        </mxCell>
        <mxCell id="4hPJbG30b4UJLHPw2dgT-130" value="NewA_ID: int" style="shape=partialRectangle;connectable=0;fillColor=none;top=0;left=0;bottom=0;right=0;align=left;spacingLeft=6;fontStyle=5;overflow=hidden;" parent="4hPJbG30b4UJLHPw2dgT-128" vertex="1">
          <mxGeometry x="30" width="180" height="30" as="geometry">
            <mxRectangle width="180" height="30" as="alternateBounds" />
          </mxGeometry>
        </mxCell>
        <mxCell id="4hPJbG30b4UJLHPw2dgT-131" value="" style="shape=partialRectangle;collapsible=0;dropTarget=0;pointerEvents=0;fillColor=none;top=0;left=0;bottom=0;right=0;points=[[0,0.5],[1,0.5]];portConstraint=eastwest;" parent="4hPJbG30b4UJLHPw2dgT-127" vertex="1">
          <mxGeometry y="60" width="210" height="30" as="geometry" />
        </mxCell>
        <mxCell id="4hPJbG30b4UJLHPw2dgT-132" value="" style="shape=partialRectangle;connectable=0;fillColor=none;top=0;left=0;bottom=0;right=0;editable=1;overflow=hidden;" parent="4hPJbG30b4UJLHPw2dgT-131" vertex="1">
          <mxGeometry width="30" height="30" as="geometry">
            <mxRectangle width="30" height="30" as="alternateBounds" />
          </mxGeometry>
        </mxCell>
        <mxCell id="4hPJbG30b4UJLHPw2dgT-133" value="FirstName: str &lt;NOT NULL&gt;" style="shape=partialRectangle;connectable=0;fillColor=none;top=0;left=0;bottom=0;right=0;align=left;spacingLeft=6;overflow=hidden;" parent="4hPJbG30b4UJLHPw2dgT-131" vertex="1">
          <mxGeometry x="30" width="180" height="30" as="geometry">
            <mxRectangle width="180" height="30" as="alternateBounds" />
          </mxGeometry>
        </mxCell>
        <mxCell id="4hPJbG30b4UJLHPw2dgT-134" value="" style="shape=partialRectangle;collapsible=0;dropTarget=0;pointerEvents=0;fillColor=none;top=0;left=0;bottom=0;right=0;points=[[0,0.5],[1,0.5]];portConstraint=eastwest;" parent="4hPJbG30b4UJLHPw2dgT-127" vertex="1">
          <mxGeometry y="90" width="210" height="30" as="geometry" />
        </mxCell>
        <mxCell id="4hPJbG30b4UJLHPw2dgT-135" value="" style="shape=partialRectangle;connectable=0;fillColor=none;top=0;left=0;bottom=0;right=0;editable=1;overflow=hidden;" parent="4hPJbG30b4UJLHPw2dgT-134" vertex="1">
          <mxGeometry width="30" height="30" as="geometry">
            <mxRectangle width="30" height="30" as="alternateBounds" />
          </mxGeometry>
        </mxCell>
        <mxCell id="4hPJbG30b4UJLHPw2dgT-136" value="LastName: str &lt;NOT NULL&gt;" style="shape=partialRectangle;connectable=0;fillColor=none;top=0;left=0;bottom=0;right=0;align=left;spacingLeft=6;overflow=hidden;" parent="4hPJbG30b4UJLHPw2dgT-134" vertex="1">
          <mxGeometry x="30" width="180" height="30" as="geometry">
            <mxRectangle width="180" height="30" as="alternateBounds" />
          </mxGeometry>
        </mxCell>
        <mxCell id="4hPJbG30b4UJLHPw2dgT-271" value="" style="shape=partialRectangle;collapsible=0;dropTarget=0;pointerEvents=0;fillColor=none;top=0;left=0;bottom=0;right=0;points=[[0,0.5],[1,0.5]];portConstraint=eastwest;" parent="4hPJbG30b4UJLHPw2dgT-127" vertex="1">
          <mxGeometry y="120" width="210" height="30" as="geometry" />
        </mxCell>
        <mxCell id="4hPJbG30b4UJLHPw2dgT-272" value="FK" style="shape=partialRectangle;connectable=0;fillColor=none;top=0;left=0;bottom=0;right=0;editable=1;overflow=hidden;" parent="4hPJbG30b4UJLHPw2dgT-271" vertex="1">
          <mxGeometry width="30" height="30" as="geometry">
            <mxRectangle width="30" height="30" as="alternateBounds" />
          </mxGeometry>
        </mxCell>
        <mxCell id="4hPJbG30b4UJLHPw2dgT-273" value="Identity_ID: int &lt;NOT NULL&gt;" style="shape=partialRectangle;connectable=0;fillColor=none;top=0;left=0;bottom=0;right=0;align=left;spacingLeft=6;overflow=hidden;" parent="4hPJbG30b4UJLHPw2dgT-271" vertex="1">
          <mxGeometry x="30" width="180" height="30" as="geometry">
            <mxRectangle width="180" height="30" as="alternateBounds" />
          </mxGeometry>
        </mxCell>
        <mxCell id="4hPJbG30b4UJLHPw2dgT-161" value="Appointment" style="shape=table;startSize=30;container=1;collapsible=1;childLayout=tableLayout;fixedRows=1;rowLines=0;fontStyle=1;align=center;resizeLast=1;" parent="1" vertex="1">
          <mxGeometry x="-215" y="350" width="390" height="190" as="geometry" />
        </mxCell>
        <mxCell id="4hPJbG30b4UJLHPw2dgT-162" value="" style="shape=partialRectangle;collapsible=0;dropTarget=0;pointerEvents=0;fillColor=none;top=0;left=0;bottom=1;right=0;points=[[0,0.5],[1,0.5]];portConstraint=eastwest;" parent="4hPJbG30b4UJLHPw2dgT-161" vertex="1">
          <mxGeometry y="30" width="390" height="30" as="geometry" />
        </mxCell>
        <mxCell id="4hPJbG30b4UJLHPw2dgT-163" value="PK" style="shape=partialRectangle;connectable=0;fillColor=none;top=0;left=0;bottom=0;right=0;fontStyle=1;overflow=hidden;" parent="4hPJbG30b4UJLHPw2dgT-162" vertex="1">
          <mxGeometry width="30" height="30" as="geometry">
            <mxRectangle width="30" height="30" as="alternateBounds" />
          </mxGeometry>
        </mxCell>
        <mxCell id="4hPJbG30b4UJLHPw2dgT-164" value="Ap_ID: int" style="shape=partialRectangle;connectable=0;fillColor=none;top=0;left=0;bottom=0;right=0;align=left;spacingLeft=6;fontStyle=5;overflow=hidden;" parent="4hPJbG30b4UJLHPw2dgT-162" vertex="1">
          <mxGeometry x="30" width="360" height="30" as="geometry">
            <mxRectangle width="360" height="30" as="alternateBounds" />
          </mxGeometry>
        </mxCell>
        <mxCell id="4hPJbG30b4UJLHPw2dgT-165" value="" style="shape=partialRectangle;collapsible=0;dropTarget=0;pointerEvents=0;fillColor=none;top=0;left=0;bottom=0;right=0;points=[[0,0.5],[1,0.5]];portConstraint=eastwest;" parent="4hPJbG30b4UJLHPw2dgT-161" vertex="1">
          <mxGeometry y="60" width="390" height="30" as="geometry" />
        </mxCell>
        <mxCell id="4hPJbG30b4UJLHPw2dgT-166" value="FK" style="shape=partialRectangle;connectable=0;fillColor=none;top=0;left=0;bottom=0;right=0;editable=1;overflow=hidden;" parent="4hPJbG30b4UJLHPw2dgT-165" vertex="1">
          <mxGeometry width="30" height="30" as="geometry">
            <mxRectangle width="30" height="30" as="alternateBounds" />
          </mxGeometry>
        </mxCell>
        <mxCell id="4hPJbG30b4UJLHPw2dgT-167" value="Customer_NewA_ID: int" style="shape=partialRectangle;connectable=0;fillColor=none;top=0;left=0;bottom=0;right=0;align=left;spacingLeft=6;overflow=hidden;" parent="4hPJbG30b4UJLHPw2dgT-165" vertex="1">
          <mxGeometry x="30" width="360" height="30" as="geometry">
            <mxRectangle width="360" height="30" as="alternateBounds" />
          </mxGeometry>
        </mxCell>
        <mxCell id="4hPJbG30b4UJLHPw2dgT-168" value="" style="shape=partialRectangle;collapsible=0;dropTarget=0;pointerEvents=0;fillColor=none;top=0;left=0;bottom=0;right=0;points=[[0,0.5],[1,0.5]];portConstraint=eastwest;" parent="4hPJbG30b4UJLHPw2dgT-161" vertex="1">
          <mxGeometry y="90" width="390" height="30" as="geometry" />
        </mxCell>
        <mxCell id="4hPJbG30b4UJLHPw2dgT-169" value="FK" style="shape=partialRectangle;connectable=0;fillColor=none;top=0;left=0;bottom=0;right=0;editable=1;overflow=hidden;" parent="4hPJbG30b4UJLHPw2dgT-168" vertex="1">
          <mxGeometry width="30" height="30" as="geometry">
            <mxRectangle width="30" height="30" as="alternateBounds" />
          </mxGeometry>
        </mxCell>
        <mxCell id="4hPJbG30b4UJLHPw2dgT-170" value="RepEmployee_A_ID: int requires: {perm: represent for service}" style="shape=partialRectangle;connectable=0;fillColor=none;top=0;left=0;bottom=0;right=0;align=left;spacingLeft=6;overflow=hidden;" parent="4hPJbG30b4UJLHPw2dgT-168" vertex="1">
          <mxGeometry x="30" width="360" height="30" as="geometry">
            <mxRectangle width="360" height="30" as="alternateBounds" />
          </mxGeometry>
        </mxCell>
        <mxCell id="4hPJbG30b4UJLHPw2dgT-174" value="" style="shape=partialRectangle;collapsible=0;dropTarget=0;pointerEvents=0;fillColor=none;top=0;left=0;bottom=0;right=0;points=[[0,0.5],[1,0.5]];portConstraint=eastwest;" parent="4hPJbG30b4UJLHPw2dgT-161" vertex="1">
          <mxGeometry y="120" width="390" height="30" as="geometry" />
        </mxCell>
        <mxCell id="4hPJbG30b4UJLHPw2dgT-175" value="FK" style="shape=partialRectangle;connectable=0;fillColor=none;top=0;left=0;bottom=0;right=0;editable=1;overflow=hidden;" parent="4hPJbG30b4UJLHPw2dgT-174" vertex="1">
          <mxGeometry width="30" height="30" as="geometry">
            <mxRectangle width="30" height="30" as="alternateBounds" />
          </mxGeometry>
        </mxCell>
        <mxCell id="4hPJbG30b4UJLHPw2dgT-176" value="P_ID: int" style="shape=partialRectangle;connectable=0;fillColor=none;top=0;left=0;bottom=0;right=0;align=left;spacingLeft=6;overflow=hidden;" parent="4hPJbG30b4UJLHPw2dgT-174" vertex="1">
          <mxGeometry x="30" width="360" height="30" as="geometry">
            <mxRectangle width="360" height="30" as="alternateBounds" />
          </mxGeometry>
        </mxCell>
        <mxCell id="4hPJbG30b4UJLHPw2dgT-180" value="" style="shape=partialRectangle;collapsible=0;dropTarget=0;pointerEvents=0;fillColor=none;top=0;left=0;bottom=0;right=0;points=[[0,0.5],[1,0.5]];portConstraint=eastwest;" parent="4hPJbG30b4UJLHPw2dgT-161" vertex="1">
          <mxGeometry y="150" width="390" height="30" as="geometry" />
        </mxCell>
        <mxCell id="4hPJbG30b4UJLHPw2dgT-181" value="" style="shape=partialRectangle;connectable=0;fillColor=none;top=0;left=0;bottom=0;right=0;editable=1;overflow=hidden;" parent="4hPJbG30b4UJLHPw2dgT-180" vertex="1">
          <mxGeometry width="30" height="30" as="geometry">
            <mxRectangle width="30" height="30" as="alternateBounds" />
          </mxGeometry>
        </mxCell>
        <mxCell id="4hPJbG30b4UJLHPw2dgT-182" value="AppointmentDate: Time" style="shape=partialRectangle;connectable=0;fillColor=none;top=0;left=0;bottom=0;right=0;align=left;spacingLeft=6;overflow=hidden;" parent="4hPJbG30b4UJLHPw2dgT-180" vertex="1">
          <mxGeometry x="30" width="360" height="30" as="geometry">
            <mxRectangle width="360" height="30" as="alternateBounds" />
          </mxGeometry>
        </mxCell>
        <mxCell id="4hPJbG30b4UJLHPw2dgT-184" value="VehicleID" style="shape=table;startSize=30;container=1;collapsible=1;childLayout=tableLayout;fixedRows=1;rowLines=0;fontStyle=1;align=center;resizeLast=1;" parent="1" vertex="1">
          <mxGeometry x="-160" y="1140" width="180" height="190" as="geometry" />
        </mxCell>
        <mxCell id="4hPJbG30b4UJLHPw2dgT-185" value="" style="shape=partialRectangle;collapsible=0;dropTarget=0;pointerEvents=0;fillColor=none;top=0;left=0;bottom=1;right=0;points=[[0,0.5],[1,0.5]];portConstraint=eastwest;" parent="4hPJbG30b4UJLHPw2dgT-184" vertex="1">
          <mxGeometry y="30" width="180" height="30" as="geometry" />
        </mxCell>
        <mxCell id="4hPJbG30b4UJLHPw2dgT-186" value="PK" style="shape=partialRectangle;connectable=0;fillColor=none;top=0;left=0;bottom=0;right=0;fontStyle=1;overflow=hidden;" parent="4hPJbG30b4UJLHPw2dgT-185" vertex="1">
          <mxGeometry width="30" height="30" as="geometry">
            <mxRectangle width="30" height="30" as="alternateBounds" />
          </mxGeometry>
        </mxCell>
        <mxCell id="4hPJbG30b4UJLHPw2dgT-187" value="V_ID: int" style="shape=partialRectangle;connectable=0;fillColor=none;top=0;left=0;bottom=0;right=0;align=left;spacingLeft=6;fontStyle=5;overflow=hidden;" parent="4hPJbG30b4UJLHPw2dgT-185" vertex="1">
          <mxGeometry x="30" width="150" height="30" as="geometry">
            <mxRectangle width="150" height="30" as="alternateBounds" />
          </mxGeometry>
        </mxCell>
        <mxCell id="4hPJbG30b4UJLHPw2dgT-188" value="" style="shape=partialRectangle;collapsible=0;dropTarget=0;pointerEvents=0;fillColor=none;top=0;left=0;bottom=0;right=0;points=[[0,0.5],[1,0.5]];portConstraint=eastwest;" parent="4hPJbG30b4UJLHPw2dgT-184" vertex="1">
          <mxGeometry y="60" width="180" height="30" as="geometry" />
        </mxCell>
        <mxCell id="4hPJbG30b4UJLHPw2dgT-189" value="FK" style="shape=partialRectangle;connectable=0;fillColor=none;top=0;left=0;bottom=0;right=0;editable=1;overflow=hidden;" parent="4hPJbG30b4UJLHPw2dgT-188" vertex="1">
          <mxGeometry width="30" height="30" as="geometry">
            <mxRectangle width="30" height="30" as="alternateBounds" />
          </mxGeometry>
        </mxCell>
        <mxCell id="4hPJbG30b4UJLHPw2dgT-190" value="I_ID: int" style="shape=partialRectangle;connectable=0;fillColor=none;top=0;left=0;bottom=0;right=0;align=left;spacingLeft=6;overflow=hidden;" parent="4hPJbG30b4UJLHPw2dgT-188" vertex="1">
          <mxGeometry x="30" width="150" height="30" as="geometry">
            <mxRectangle width="150" height="30" as="alternateBounds" />
          </mxGeometry>
        </mxCell>
        <mxCell id="4hPJbG30b4UJLHPw2dgT-191" value="" style="shape=partialRectangle;collapsible=0;dropTarget=0;pointerEvents=0;fillColor=none;top=0;left=0;bottom=0;right=0;points=[[0,0.5],[1,0.5]];portConstraint=eastwest;" parent="4hPJbG30b4UJLHPw2dgT-184" vertex="1">
          <mxGeometry y="90" width="180" height="30" as="geometry" />
        </mxCell>
        <mxCell id="4hPJbG30b4UJLHPw2dgT-192" value="" style="shape=partialRectangle;connectable=0;fillColor=none;top=0;left=0;bottom=0;right=0;editable=1;overflow=hidden;" parent="4hPJbG30b4UJLHPw2dgT-191" vertex="1">
          <mxGeometry width="30" height="30" as="geometry">
            <mxRectangle width="30" height="30" as="alternateBounds" />
          </mxGeometry>
        </mxCell>
        <mxCell id="4hPJbG30b4UJLHPw2dgT-193" value="VehicleModel: str" style="shape=partialRectangle;connectable=0;fillColor=none;top=0;left=0;bottom=0;right=0;align=left;spacingLeft=6;overflow=hidden;" parent="4hPJbG30b4UJLHPw2dgT-191" vertex="1">
          <mxGeometry x="30" width="150" height="30" as="geometry">
            <mxRectangle width="150" height="30" as="alternateBounds" />
          </mxGeometry>
        </mxCell>
        <mxCell id="4hPJbG30b4UJLHPw2dgT-194" value="" style="shape=partialRectangle;collapsible=0;dropTarget=0;pointerEvents=0;fillColor=none;top=0;left=0;bottom=0;right=0;points=[[0,0.5],[1,0.5]];portConstraint=eastwest;" parent="4hPJbG30b4UJLHPw2dgT-184" vertex="1">
          <mxGeometry y="120" width="180" height="30" as="geometry" />
        </mxCell>
        <mxCell id="4hPJbG30b4UJLHPw2dgT-195" value="" style="shape=partialRectangle;connectable=0;fillColor=none;top=0;left=0;bottom=0;right=0;editable=1;overflow=hidden;" parent="4hPJbG30b4UJLHPw2dgT-194" vertex="1">
          <mxGeometry width="30" height="30" as="geometry">
            <mxRectangle width="30" height="30" as="alternateBounds" />
          </mxGeometry>
        </mxCell>
        <mxCell id="4hPJbG30b4UJLHPw2dgT-196" value="PlateName: str" style="shape=partialRectangle;connectable=0;fillColor=none;top=0;left=0;bottom=0;right=0;align=left;spacingLeft=6;overflow=hidden;" parent="4hPJbG30b4UJLHPw2dgT-194" vertex="1">
          <mxGeometry x="30" width="150" height="30" as="geometry">
            <mxRectangle width="150" height="30" as="alternateBounds" />
          </mxGeometry>
        </mxCell>
        <mxCell id="4hPJbG30b4UJLHPw2dgT-201" value="" style="shape=partialRectangle;collapsible=0;dropTarget=0;pointerEvents=0;fillColor=none;top=0;left=0;bottom=0;right=0;points=[[0,0.5],[1,0.5]];portConstraint=eastwest;" parent="4hPJbG30b4UJLHPw2dgT-184" vertex="1">
          <mxGeometry y="150" width="180" height="30" as="geometry" />
        </mxCell>
        <mxCell id="4hPJbG30b4UJLHPw2dgT-202" value="" style="shape=partialRectangle;connectable=0;fillColor=none;top=0;left=0;bottom=0;right=0;editable=1;overflow=hidden;" parent="4hPJbG30b4UJLHPw2dgT-201" vertex="1">
          <mxGeometry width="30" height="30" as="geometry">
            <mxRectangle width="30" height="30" as="alternateBounds" />
          </mxGeometry>
        </mxCell>
        <mxCell id="4hPJbG30b4UJLHPw2dgT-203" value="VehicleBrand: str" style="shape=partialRectangle;connectable=0;fillColor=none;top=0;left=0;bottom=0;right=0;align=left;spacingLeft=6;overflow=hidden;" parent="4hPJbG30b4UJLHPw2dgT-201" vertex="1">
          <mxGeometry x="30" width="150" height="30" as="geometry">
            <mxRectangle width="150" height="30" as="alternateBounds" />
          </mxGeometry>
        </mxCell>
        <mxCell id="4hPJbG30b4UJLHPw2dgT-274" value="Product" style="shape=table;startSize=30;container=1;collapsible=1;childLayout=tableLayout;fixedRows=1;rowLines=0;fontStyle=1;align=center;resizeLast=1;" parent="1" vertex="1">
          <mxGeometry x="-800" y="690" width="200" height="190" as="geometry" />
        </mxCell>
        <mxCell id="4hPJbG30b4UJLHPw2dgT-275" value="" style="shape=partialRectangle;collapsible=0;dropTarget=0;pointerEvents=0;fillColor=none;top=0;left=0;bottom=0;right=0;points=[[0,0.5],[1,0.5]];portConstraint=eastwest;" parent="4hPJbG30b4UJLHPw2dgT-274" vertex="1">
          <mxGeometry y="30" width="200" height="30" as="geometry" />
        </mxCell>
        <mxCell id="4hPJbG30b4UJLHPw2dgT-276" value="PK" style="shape=partialRectangle;connectable=0;fillColor=none;top=0;left=0;bottom=0;right=0;fontStyle=1;overflow=hidden;" parent="4hPJbG30b4UJLHPw2dgT-275" vertex="1">
          <mxGeometry width="60" height="30" as="geometry">
            <mxRectangle width="60" height="30" as="alternateBounds" />
          </mxGeometry>
        </mxCell>
        <mxCell id="4hPJbG30b4UJLHPw2dgT-277" value="Placeholder" style="shape=partialRectangle;connectable=0;fillColor=none;top=0;left=0;bottom=0;right=0;align=left;spacingLeft=6;fontStyle=5;overflow=hidden;" parent="4hPJbG30b4UJLHPw2dgT-275" vertex="1">
          <mxGeometry x="60" width="140" height="30" as="geometry">
            <mxRectangle width="140" height="30" as="alternateBounds" />
          </mxGeometry>
        </mxCell>
        <mxCell id="4hPJbG30b4UJLHPw2dgT-278" value="" style="shape=partialRectangle;collapsible=0;dropTarget=0;pointerEvents=0;fillColor=none;top=0;left=0;bottom=1;right=0;points=[[0,0.5],[1,0.5]];portConstraint=eastwest;" parent="4hPJbG30b4UJLHPw2dgT-274" vertex="1">
          <mxGeometry y="60" width="200" height="30" as="geometry" />
        </mxCell>
        <mxCell id="4hPJbG30b4UJLHPw2dgT-279" value="PK, FK" style="shape=partialRectangle;connectable=0;fillColor=none;top=0;left=0;bottom=0;right=0;fontStyle=1;overflow=hidden;" parent="4hPJbG30b4UJLHPw2dgT-278" vertex="1">
          <mxGeometry width="60" height="30" as="geometry">
            <mxRectangle width="60" height="30" as="alternateBounds" />
          </mxGeometry>
        </mxCell>
        <mxCell id="4hPJbG30b4UJLHPw2dgT-280" value="P_ID" style="shape=partialRectangle;connectable=0;fillColor=none;top=0;left=0;bottom=0;right=0;align=left;spacingLeft=6;fontStyle=5;overflow=hidden;" parent="4hPJbG30b4UJLHPw2dgT-278" vertex="1">
          <mxGeometry x="60" width="140" height="30" as="geometry">
            <mxRectangle width="140" height="30" as="alternateBounds" />
          </mxGeometry>
        </mxCell>
        <mxCell id="4hPJbG30b4UJLHPw2dgT-281" value="" style="shape=partialRectangle;collapsible=0;dropTarget=0;pointerEvents=0;fillColor=none;top=0;left=0;bottom=0;right=0;points=[[0,0.5],[1,0.5]];portConstraint=eastwest;" parent="4hPJbG30b4UJLHPw2dgT-274" vertex="1">
          <mxGeometry y="90" width="200" height="30" as="geometry" />
        </mxCell>
        <mxCell id="4hPJbG30b4UJLHPw2dgT-282" value="" style="shape=partialRectangle;connectable=0;fillColor=none;top=0;left=0;bottom=0;right=0;editable=1;overflow=hidden;" parent="4hPJbG30b4UJLHPw2dgT-281" vertex="1">
          <mxGeometry width="60" height="30" as="geometry">
            <mxRectangle width="60" height="30" as="alternateBounds" />
          </mxGeometry>
        </mxCell>
        <mxCell id="4hPJbG30b4UJLHPw2dgT-283" value="ProductName: str" style="shape=partialRectangle;connectable=0;fillColor=none;top=0;left=0;bottom=0;right=0;align=left;spacingLeft=6;overflow=hidden;" parent="4hPJbG30b4UJLHPw2dgT-281" vertex="1">
          <mxGeometry x="60" width="140" height="30" as="geometry">
            <mxRectangle width="140" height="30" as="alternateBounds" />
          </mxGeometry>
        </mxCell>
        <mxCell id="4hPJbG30b4UJLHPw2dgT-284" value="" style="shape=partialRectangle;collapsible=0;dropTarget=0;pointerEvents=0;fillColor=none;top=0;left=0;bottom=0;right=0;points=[[0,0.5],[1,0.5]];portConstraint=eastwest;" parent="4hPJbG30b4UJLHPw2dgT-274" vertex="1">
          <mxGeometry y="120" width="200" height="30" as="geometry" />
        </mxCell>
        <mxCell id="4hPJbG30b4UJLHPw2dgT-285" value="" style="shape=partialRectangle;connectable=0;fillColor=none;top=0;left=0;bottom=0;right=0;editable=1;overflow=hidden;" parent="4hPJbG30b4UJLHPw2dgT-284" vertex="1">
          <mxGeometry width="60" height="30" as="geometry">
            <mxRectangle width="60" height="30" as="alternateBounds" />
          </mxGeometry>
        </mxCell>
        <mxCell id="4hPJbG30b4UJLHPw2dgT-286" value="ProductPrice: int" style="shape=partialRectangle;connectable=0;fillColor=none;top=0;left=0;bottom=0;right=0;align=left;spacingLeft=6;overflow=hidden;" parent="4hPJbG30b4UJLHPw2dgT-284" vertex="1">
          <mxGeometry x="60" width="140" height="30" as="geometry">
            <mxRectangle width="140" height="30" as="alternateBounds" />
          </mxGeometry>
        </mxCell>
        <mxCell id="4hPJbG30b4UJLHPw2dgT-313" value="" style="shape=partialRectangle;collapsible=0;dropTarget=0;pointerEvents=0;fillColor=none;top=0;left=0;bottom=0;right=0;points=[[0,0.5],[1,0.5]];portConstraint=eastwest;" parent="4hPJbG30b4UJLHPw2dgT-274" vertex="1">
          <mxGeometry y="150" width="200" height="30" as="geometry" />
        </mxCell>
        <mxCell id="4hPJbG30b4UJLHPw2dgT-314" value="" style="shape=partialRectangle;connectable=0;fillColor=none;top=0;left=0;bottom=0;right=0;editable=1;overflow=hidden;" parent="4hPJbG30b4UJLHPw2dgT-313" vertex="1">
          <mxGeometry width="60" height="30" as="geometry">
            <mxRectangle width="60" height="30" as="alternateBounds" />
          </mxGeometry>
        </mxCell>
        <mxCell id="4hPJbG30b4UJLHPw2dgT-315" value="ProductExpiry: TimeDiff" style="shape=partialRectangle;connectable=0;fillColor=none;top=0;left=0;bottom=0;right=0;align=left;spacingLeft=6;overflow=hidden;" parent="4hPJbG30b4UJLHPw2dgT-313" vertex="1">
          <mxGeometry x="60" width="140" height="30" as="geometry">
            <mxRectangle width="140" height="30" as="alternateBounds" />
          </mxGeometry>
        </mxCell>
        <mxCell id="4hPJbG30b4UJLHPw2dgT-300" value="ProductAssociateDepartment" style="shape=table;startSize=30;container=1;collapsible=1;childLayout=tableLayout;fixedRows=1;rowLines=0;fontStyle=1;align=center;resizeLast=1;" parent="1" vertex="1">
          <mxGeometry x="-520" y="800" width="180" height="100" as="geometry" />
        </mxCell>
        <mxCell id="4hPJbG30b4UJLHPw2dgT-304" value="" style="shape=partialRectangle;collapsible=0;dropTarget=0;pointerEvents=0;fillColor=none;top=0;left=0;bottom=0;right=0;points=[[0,0.5],[1,0.5]];portConstraint=eastwest;" parent="4hPJbG30b4UJLHPw2dgT-300" vertex="1">
          <mxGeometry y="30" width="180" height="30" as="geometry" />
        </mxCell>
        <mxCell id="4hPJbG30b4UJLHPw2dgT-305" value="FK" style="shape=partialRectangle;connectable=0;fillColor=none;top=0;left=0;bottom=0;right=0;editable=1;overflow=hidden;" parent="4hPJbG30b4UJLHPw2dgT-304" vertex="1">
          <mxGeometry width="30" height="30" as="geometry">
            <mxRectangle width="30" height="30" as="alternateBounds" />
          </mxGeometry>
        </mxCell>
        <mxCell id="4hPJbG30b4UJLHPw2dgT-306" value="P_ID" style="shape=partialRectangle;connectable=0;fillColor=none;top=0;left=0;bottom=0;right=0;align=left;spacingLeft=6;overflow=hidden;" parent="4hPJbG30b4UJLHPw2dgT-304" vertex="1">
          <mxGeometry x="30" width="150" height="30" as="geometry">
            <mxRectangle width="150" height="30" as="alternateBounds" />
          </mxGeometry>
        </mxCell>
        <mxCell id="4hPJbG30b4UJLHPw2dgT-307" value="" style="shape=partialRectangle;collapsible=0;dropTarget=0;pointerEvents=0;fillColor=none;top=0;left=0;bottom=0;right=0;points=[[0,0.5],[1,0.5]];portConstraint=eastwest;" parent="4hPJbG30b4UJLHPw2dgT-300" vertex="1">
          <mxGeometry y="60" width="180" height="30" as="geometry" />
        </mxCell>
        <mxCell id="4hPJbG30b4UJLHPw2dgT-308" value="FK" style="shape=partialRectangle;connectable=0;fillColor=none;top=0;left=0;bottom=0;right=0;editable=1;overflow=hidden;" parent="4hPJbG30b4UJLHPw2dgT-307" vertex="1">
          <mxGeometry width="30" height="30" as="geometry">
            <mxRectangle width="30" height="30" as="alternateBounds" />
          </mxGeometry>
        </mxCell>
        <mxCell id="4hPJbG30b4UJLHPw2dgT-309" value="Dep_ID" style="shape=partialRectangle;connectable=0;fillColor=none;top=0;left=0;bottom=0;right=0;align=left;spacingLeft=6;overflow=hidden;" parent="4hPJbG30b4UJLHPw2dgT-307" vertex="1">
          <mxGeometry x="30" width="150" height="30" as="geometry">
            <mxRectangle width="150" height="30" as="alternateBounds" />
          </mxGeometry>
        </mxCell>
        <mxCell id="4hPJbG30b4UJLHPw2dgT-333" value="" style="endArrow=none;html=1;rounded=0;startSize=14;endSize=12;exitX=0.25;exitY=1;exitDx=0;exitDy=0;edgeStyle=orthogonalEdgeStyle;" parent="1" source="dnUBaIv1aMOGEJIHoMsu-28" edge="1">
          <mxGeometry relative="1" as="geometry">
            <mxPoint x="-600" y="290" as="sourcePoint" />
            <mxPoint x="-630" y="460" as="targetPoint" />
            <Array as="points">
              <mxPoint x="-615" y="460" />
            </Array>
          </mxGeometry>
        </mxCell>
        <mxCell id="4hPJbG30b4UJLHPw2dgT-334" value="1..M" style="resizable=0;html=1;align=left;verticalAlign=bottom;" parent="4hPJbG30b4UJLHPw2dgT-333" connectable="0" vertex="1">
          <mxGeometry x="-1" relative="1" as="geometry">
            <mxPoint x="10" y="20" as="offset" />
          </mxGeometry>
        </mxCell>
        <mxCell id="4hPJbG30b4UJLHPw2dgT-335" value="1..N" style="resizable=0;html=1;align=right;verticalAlign=bottom;" parent="4hPJbG30b4UJLHPw2dgT-333" connectable="0" vertex="1">
          <mxGeometry x="1" relative="1" as="geometry" />
        </mxCell>
        <mxCell id="4hPJbG30b4UJLHPw2dgT-336" value="" style="endArrow=none;html=1;rounded=0;startSize=14;endSize=12;entryX=1;entryY=0.5;entryDx=0;entryDy=0;edgeStyle=orthogonalEdgeStyle;" parent="1" target="4hPJbG30b4UJLHPw2dgT-41" edge="1">
          <mxGeometry relative="1" as="geometry">
            <mxPoint x="-880" y="520" as="sourcePoint" />
            <mxPoint x="-720" y="530" as="targetPoint" />
            <Array as="points">
              <mxPoint x="-870" y="520" />
              <mxPoint x="-870" y="725" />
            </Array>
          </mxGeometry>
        </mxCell>
        <mxCell id="4hPJbG30b4UJLHPw2dgT-337" value="1" style="resizable=0;html=1;align=right;verticalAlign=bottom;" parent="4hPJbG30b4UJLHPw2dgT-336" connectable="0" vertex="1">
          <mxGeometry x="1" relative="1" as="geometry">
            <mxPoint x="20" as="offset" />
          </mxGeometry>
        </mxCell>
        <mxCell id="4hPJbG30b4UJLHPw2dgT-338" value="" style="endArrow=none;html=1;rounded=0;startSize=14;endSize=12;exitX=0;exitY=0.5;exitDx=0;exitDy=0;entryX=1;entryY=0.5;entryDx=0;entryDy=0;" parent="1" source="dnUBaIv1aMOGEJIHoMsu-45" target="4hPJbG30b4UJLHPw2dgT-340" edge="1">
          <mxGeometry relative="1" as="geometry">
            <mxPoint x="-900" y="520" as="sourcePoint" />
            <mxPoint x="-740" y="520" as="targetPoint" />
          </mxGeometry>
        </mxCell>
        <mxCell id="4hPJbG30b4UJLHPw2dgT-339" value="1" style="resizable=0;html=1;align=right;verticalAlign=bottom;" parent="4hPJbG30b4UJLHPw2dgT-338" connectable="0" vertex="1">
          <mxGeometry x="1" relative="1" as="geometry">
            <mxPoint x="10" as="offset" />
          </mxGeometry>
        </mxCell>
        <mxCell id="4hPJbG30b4UJLHPw2dgT-344" value="" style="endArrow=none;html=1;rounded=0;startSize=14;endSize=12;exitX=0.5;exitY=1;exitDx=0;exitDy=0;entryX=0.443;entryY=-0.013;entryDx=0;entryDy=0;entryPerimeter=0;" parent="1" source="4hPJbG30b4UJLHPw2dgT-1" target="4hPJbG30b4UJLHPw2dgT-300" edge="1">
          <mxGeometry relative="1" as="geometry">
            <mxPoint x="-450" y="540" as="sourcePoint" />
            <mxPoint x="-290" y="540" as="targetPoint" />
          </mxGeometry>
        </mxCell>
        <mxCell id="4hPJbG30b4UJLHPw2dgT-345" value="N" style="resizable=0;html=1;align=right;verticalAlign=bottom;" parent="4hPJbG30b4UJLHPw2dgT-344" connectable="0" vertex="1">
          <mxGeometry x="1" relative="1" as="geometry" />
        </mxCell>
        <mxCell id="4hPJbG30b4UJLHPw2dgT-348" value="" style="endArrow=none;html=1;rounded=0;startSize=14;endSize=12;exitX=0.998;exitY=0.156;exitDx=0;exitDy=0;exitPerimeter=0;" parent="1" source="4hPJbG30b4UJLHPw2dgT-313" edge="1">
          <mxGeometry relative="1" as="geometry">
            <mxPoint x="-450" y="540" as="sourcePoint" />
            <mxPoint x="-520" y="845" as="targetPoint" />
          </mxGeometry>
        </mxCell>
        <mxCell id="4hPJbG30b4UJLHPw2dgT-349" value="N" style="resizable=0;html=1;align=right;verticalAlign=bottom;" parent="4hPJbG30b4UJLHPw2dgT-348" connectable="0" vertex="1">
          <mxGeometry x="1" relative="1" as="geometry" />
        </mxCell>
        <mxCell id="4hPJbG30b4UJLHPw2dgT-350" value="" style="endArrow=none;html=1;rounded=0;startSize=14;endSize=12;exitX=0.25;exitY=0;exitDx=0;exitDy=0;" parent="1" source="dnUBaIv1aMOGEJIHoMsu-54" edge="1">
          <mxGeometry relative="1" as="geometry">
            <mxPoint x="-410" y="500" as="sourcePoint" />
            <mxPoint x="-495" y="280" as="targetPoint" />
          </mxGeometry>
        </mxCell>
        <mxCell id="4hPJbG30b4UJLHPw2dgT-351" value="1" style="resizable=0;html=1;align=right;verticalAlign=bottom;" parent="4hPJbG30b4UJLHPw2dgT-350" connectable="0" vertex="1">
          <mxGeometry x="1" relative="1" as="geometry">
            <mxPoint x="-10" y="25" as="offset" />
          </mxGeometry>
        </mxCell>
        <mxCell id="4hPJbG30b4UJLHPw2dgT-352" value="Web2Identity" style="shape=table;startSize=30;container=1;collapsible=1;childLayout=tableLayout;fixedRows=1;rowLines=0;fontStyle=1;align=center;resizeLast=1;" parent="1" vertex="1">
          <mxGeometry x="-110" y="120" width="220" height="160" as="geometry" />
        </mxCell>
        <mxCell id="4hPJbG30b4UJLHPw2dgT-353" value="" style="shape=partialRectangle;collapsible=0;dropTarget=0;pointerEvents=0;fillColor=none;top=0;left=0;bottom=1;right=0;points=[[0,0.5],[1,0.5]];portConstraint=eastwest;" parent="4hPJbG30b4UJLHPw2dgT-352" vertex="1">
          <mxGeometry y="30" width="220" height="30" as="geometry" />
        </mxCell>
        <mxCell id="4hPJbG30b4UJLHPw2dgT-354" value="PK" style="shape=partialRectangle;connectable=0;fillColor=none;top=0;left=0;bottom=0;right=0;fontStyle=1;overflow=hidden;" parent="4hPJbG30b4UJLHPw2dgT-353" vertex="1">
          <mxGeometry width="30" height="30" as="geometry">
            <mxRectangle width="30" height="30" as="alternateBounds" />
          </mxGeometry>
        </mxCell>
        <mxCell id="4hPJbG30b4UJLHPw2dgT-355" value="Identity_ID: int" style="shape=partialRectangle;connectable=0;fillColor=none;top=0;left=0;bottom=0;right=0;align=left;spacingLeft=6;fontStyle=5;overflow=hidden;" parent="4hPJbG30b4UJLHPw2dgT-353" vertex="1">
          <mxGeometry x="30" width="190" height="30" as="geometry">
            <mxRectangle width="190" height="30" as="alternateBounds" />
          </mxGeometry>
        </mxCell>
        <mxCell id="4hPJbG30b4UJLHPw2dgT-356" value="" style="shape=partialRectangle;collapsible=0;dropTarget=0;pointerEvents=0;fillColor=none;top=0;left=0;bottom=0;right=0;points=[[0,0.5],[1,0.5]];portConstraint=eastwest;" parent="4hPJbG30b4UJLHPw2dgT-352" vertex="1">
          <mxGeometry y="60" width="220" height="30" as="geometry" />
        </mxCell>
        <mxCell id="4hPJbG30b4UJLHPw2dgT-357" value="" style="shape=partialRectangle;connectable=0;fillColor=none;top=0;left=0;bottom=0;right=0;editable=1;overflow=hidden;" parent="4hPJbG30b4UJLHPw2dgT-356" vertex="1">
          <mxGeometry width="30" height="30" as="geometry">
            <mxRectangle width="30" height="30" as="alternateBounds" />
          </mxGeometry>
        </mxCell>
        <mxCell id="4hPJbG30b4UJLHPw2dgT-358" value="email: str &lt;NOT NULL&gt;" style="shape=partialRectangle;connectable=0;fillColor=none;top=0;left=0;bottom=0;right=0;align=left;spacingLeft=6;overflow=hidden;" parent="4hPJbG30b4UJLHPw2dgT-356" vertex="1">
          <mxGeometry x="30" width="190" height="30" as="geometry">
            <mxRectangle width="190" height="30" as="alternateBounds" />
          </mxGeometry>
        </mxCell>
        <mxCell id="4hPJbG30b4UJLHPw2dgT-359" value="" style="shape=partialRectangle;collapsible=0;dropTarget=0;pointerEvents=0;fillColor=none;top=0;left=0;bottom=0;right=0;points=[[0,0.5],[1,0.5]];portConstraint=eastwest;" parent="4hPJbG30b4UJLHPw2dgT-352" vertex="1">
          <mxGeometry y="90" width="220" height="30" as="geometry" />
        </mxCell>
        <mxCell id="4hPJbG30b4UJLHPw2dgT-360" value="" style="shape=partialRectangle;connectable=0;fillColor=none;top=0;left=0;bottom=0;right=0;editable=1;overflow=hidden;" parent="4hPJbG30b4UJLHPw2dgT-359" vertex="1">
          <mxGeometry width="30" height="30" as="geometry">
            <mxRectangle width="30" height="30" as="alternateBounds" />
          </mxGeometry>
        </mxCell>
        <mxCell id="4hPJbG30b4UJLHPw2dgT-361" value="phoneNumber: str &lt;NOT NULL&gt;" style="shape=partialRectangle;connectable=0;fillColor=none;top=0;left=0;bottom=0;right=0;align=left;spacingLeft=6;overflow=hidden;" parent="4hPJbG30b4UJLHPw2dgT-359" vertex="1">
          <mxGeometry x="30" width="190" height="30" as="geometry">
            <mxRectangle width="190" height="30" as="alternateBounds" />
          </mxGeometry>
        </mxCell>
        <mxCell id="4hPJbG30b4UJLHPw2dgT-362" value="" style="shape=partialRectangle;collapsible=0;dropTarget=0;pointerEvents=0;fillColor=none;top=0;left=0;bottom=0;right=0;points=[[0,0.5],[1,0.5]];portConstraint=eastwest;" parent="4hPJbG30b4UJLHPw2dgT-352" vertex="1">
          <mxGeometry y="120" width="220" height="30" as="geometry" />
        </mxCell>
        <mxCell id="4hPJbG30b4UJLHPw2dgT-363" value="" style="shape=partialRectangle;connectable=0;fillColor=none;top=0;left=0;bottom=0;right=0;editable=1;overflow=hidden;" parent="4hPJbG30b4UJLHPw2dgT-362" vertex="1">
          <mxGeometry width="30" height="30" as="geometry">
            <mxRectangle width="30" height="30" as="alternateBounds" />
          </mxGeometry>
        </mxCell>
        <mxCell id="4hPJbG30b4UJLHPw2dgT-364" value="" style="shape=partialRectangle;connectable=0;fillColor=none;top=0;left=0;bottom=0;right=0;align=left;spacingLeft=6;overflow=hidden;" parent="4hPJbG30b4UJLHPw2dgT-362" vertex="1">
          <mxGeometry x="30" width="190" height="30" as="geometry">
            <mxRectangle width="190" height="30" as="alternateBounds" />
          </mxGeometry>
        </mxCell>
        <mxCell id="4hPJbG30b4UJLHPw2dgT-366" value="" style="endArrow=none;html=1;rounded=0;startSize=14;endSize=12;exitX=1;exitY=0.5;exitDx=0;exitDy=0;entryX=0;entryY=0.5;entryDx=0;entryDy=0;edgeStyle=orthogonalEdgeStyle;" parent="1" source="4hPJbG30b4UJLHPw2dgT-271" target="4hPJbG30b4UJLHPw2dgT-359" edge="1">
          <mxGeometry relative="1" as="geometry">
            <mxPoint x="-310" y="540" as="sourcePoint" />
            <mxPoint x="-150" y="540" as="targetPoint" />
          </mxGeometry>
        </mxCell>
        <mxCell id="4hPJbG30b4UJLHPw2dgT-367" value="1" style="resizable=0;html=1;align=right;verticalAlign=bottom;" parent="4hPJbG30b4UJLHPw2dgT-366" connectable="0" vertex="1">
          <mxGeometry x="1" relative="1" as="geometry" />
        </mxCell>
        <mxCell id="4hPJbG30b4UJLHPw2dgT-368" value="" style="endArrow=none;html=1;rounded=0;startSize=14;endSize=12;exitX=1;exitY=0.5;exitDx=0;exitDy=0;entryX=0;entryY=0.5;entryDx=0;entryDy=0;" parent="1" source="dnUBaIv1aMOGEJIHoMsu-38" target="4hPJbG30b4UJLHPw2dgT-134" edge="1">
          <mxGeometry relative="1" as="geometry">
            <mxPoint x="-310" y="540" as="sourcePoint" />
            <mxPoint x="-150" y="540" as="targetPoint" />
          </mxGeometry>
        </mxCell>
        <mxCell id="4hPJbG30b4UJLHPw2dgT-369" value="1" style="resizable=0;html=1;align=right;verticalAlign=bottom;" parent="4hPJbG30b4UJLHPw2dgT-368" connectable="0" vertex="1">
          <mxGeometry x="1" relative="1" as="geometry" />
        </mxCell>
        <mxCell id="4hPJbG30b4UJLHPw2dgT-375" value="" style="endArrow=none;html=1;rounded=0;startSize=14;endSize=12;exitX=1;exitY=0.5;exitDx=0;exitDy=0;entryX=1;entryY=0.5;entryDx=0;entryDy=0;edgeStyle=orthogonalEdgeStyle;" parent="1" source="4hPJbG30b4UJLHPw2dgT-157" target="4hPJbG30b4UJLHPw2dgT-162" edge="1">
          <mxGeometry relative="1" as="geometry">
            <mxPoint x="-220" y="520" as="sourcePoint" />
            <mxPoint x="-60" y="520" as="targetPoint" />
          </mxGeometry>
        </mxCell>
        <mxCell id="4hPJbG30b4UJLHPw2dgT-376" value="1" style="resizable=0;html=1;align=right;verticalAlign=bottom;" parent="4hPJbG30b4UJLHPw2dgT-375" connectable="0" vertex="1">
          <mxGeometry x="1" relative="1" as="geometry">
            <mxPoint x="15" as="offset" />
          </mxGeometry>
        </mxCell>
        <mxCell id="4hPJbG30b4UJLHPw2dgT-377" value="" style="endArrow=none;html=1;rounded=0;startSize=14;endSize=12;exitX=0.5;exitY=0;exitDx=0;exitDy=0;entryX=0.5;entryY=1;entryDx=0;entryDy=0;" parent="1" source="4hPJbG30b4UJLHPw2dgT-184" target="4hPJbG30b4UJLHPw2dgT-14" edge="1">
          <mxGeometry relative="1" as="geometry">
            <mxPoint x="-465" y="1110" as="sourcePoint" />
            <mxPoint x="-305" y="1110" as="targetPoint" />
          </mxGeometry>
        </mxCell>
        <mxCell id="4hPJbG30b4UJLHPw2dgT-378" value="1" style="resizable=0;html=1;align=right;verticalAlign=bottom;" parent="4hPJbG30b4UJLHPw2dgT-377" connectable="0" vertex="1">
          <mxGeometry x="1" relative="1" as="geometry">
            <mxPoint x="-5" y="20" as="offset" />
          </mxGeometry>
        </mxCell>
        <mxCell id="4hPJbG30b4UJLHPw2dgT-380" value="" style="endArrow=none;html=1;rounded=0;startSize=14;endSize=12;exitX=0;exitY=0.5;exitDx=0;exitDy=0;entryX=0;entryY=0.5;entryDx=0;entryDy=0;edgeStyle=orthogonalEdgeStyle;" parent="1" source="4hPJbG30b4UJLHPw2dgT-198" target="4hPJbG30b4UJLHPw2dgT-15" edge="1">
          <mxGeometry relative="1" as="geometry">
            <mxPoint x="-210" y="800" as="sourcePoint" />
            <mxPoint x="-50" y="800" as="targetPoint" />
          </mxGeometry>
        </mxCell>
        <mxCell id="4hPJbG30b4UJLHPw2dgT-381" value="1" style="resizable=0;html=1;align=right;verticalAlign=bottom;" parent="4hPJbG30b4UJLHPw2dgT-380" connectable="0" vertex="1">
          <mxGeometry x="1" relative="1" as="geometry" />
        </mxCell>
        <mxCell id="4hPJbG30b4UJLHPw2dgT-382" value="" style="endArrow=none;html=1;rounded=0;dashed=1;dashPattern=1 2;startSize=14;endSize=12;exitX=0.75;exitY=1;exitDx=0;exitDy=0;entryX=0.75;entryY=0;entryDx=0;entryDy=0;" parent="1" source="4hPJbG30b4UJLHPw2dgT-14" target="4hPJbG30b4UJLHPw2dgT-184" edge="1">
          <mxGeometry relative="1" as="geometry">
            <mxPoint x="-140" y="930" as="sourcePoint" />
            <mxPoint x="-25" y="1130" as="targetPoint" />
          </mxGeometry>
        </mxCell>
        <mxCell id="4hPJbG30b4UJLHPw2dgT-383" value="1" style="resizable=0;html=1;align=right;verticalAlign=bottom;" parent="4hPJbG30b4UJLHPw2dgT-382" connectable="0" vertex="1">
          <mxGeometry x="1" relative="1" as="geometry" />
        </mxCell>
        <mxCell id="4hPJbG30b4UJLHPw2dgT-388" value="" style="endArrow=none;html=1;rounded=0;startSize=14;endSize=12;exitX=0;exitY=0.5;exitDx=0;exitDy=0;edgeStyle=orthogonalEdgeStyle;" parent="1" source="4hPJbG30b4UJLHPw2dgT-165" edge="1">
          <mxGeometry relative="1" as="geometry">
            <mxPoint x="-280" y="480" as="sourcePoint" />
            <mxPoint x="-260" y="280" as="targetPoint" />
            <Array as="points">
              <mxPoint x="-260" y="425" />
              <mxPoint x="-260" y="280" />
            </Array>
          </mxGeometry>
        </mxCell>
        <mxCell id="4hPJbG30b4UJLHPw2dgT-389" value="N" style="resizable=0;html=1;align=right;verticalAlign=bottom;" parent="4hPJbG30b4UJLHPw2dgT-388" connectable="0" vertex="1">
          <mxGeometry x="1" relative="1" as="geometry">
            <mxPoint y="20" as="offset" />
          </mxGeometry>
        </mxCell>
        <mxCell id="4hPJbG30b4UJLHPw2dgT-391" value="" style="endArrow=none;html=1;rounded=0;startSize=14;endSize=12;exitX=0;exitY=0.5;exitDx=0;exitDy=0;entryX=0.5;entryY=0;entryDx=0;entryDy=0;edgeStyle=orthogonalEdgeStyle;" parent="1" source="4hPJbG30b4UJLHPw2dgT-174" target="4hPJbG30b4UJLHPw2dgT-274" edge="1">
          <mxGeometry relative="1" as="geometry">
            <mxPoint x="-470" y="530" as="sourcePoint" />
            <mxPoint x="-310" y="530" as="targetPoint" />
            <Array as="points">
              <mxPoint x="-240" y="485" />
              <mxPoint x="-240" y="570" />
              <mxPoint x="-700" y="570" />
            </Array>
          </mxGeometry>
        </mxCell>
        <mxCell id="4hPJbG30b4UJLHPw2dgT-392" value="N" style="resizable=0;html=1;align=right;verticalAlign=bottom;" parent="4hPJbG30b4UJLHPw2dgT-391" connectable="0" vertex="1">
          <mxGeometry x="1" relative="1" as="geometry" />
        </mxCell>
        <mxCell id="4hPJbG30b4UJLHPw2dgT-393" value="" style="endArrow=none;html=1;rounded=0;startSize=14;endSize=12;exitX=0;exitY=0.5;exitDx=0;exitDy=0;edgeStyle=orthogonalEdgeStyle;entryX=0.5;entryY=1;entryDx=0;entryDy=0;" parent="1" source="4hPJbG30b4UJLHPw2dgT-168" target="dnUBaIv1aMOGEJIHoMsu-41" edge="1">
          <mxGeometry relative="1" as="geometry">
            <mxPoint x="-380" y="470" as="sourcePoint" />
            <mxPoint x="-770" y="560" as="targetPoint" />
            <Array as="points">
              <mxPoint x="-260" y="455" />
              <mxPoint x="-260" y="550" />
              <mxPoint x="-720" y="550" />
            </Array>
          </mxGeometry>
        </mxCell>
        <mxCell id="4hPJbG30b4UJLHPw2dgT-394" value="N" style="resizable=0;html=1;align=right;verticalAlign=bottom;" parent="4hPJbG30b4UJLHPw2dgT-393" connectable="0" vertex="1">
          <mxGeometry x="1" relative="1" as="geometry">
            <mxPoint y="20" as="offset" />
          </mxGeometry>
        </mxCell>
        <mxCell id="4hPJbG30b4UJLHPw2dgT-415" value="" style="endArrow=none;html=1;rounded=0;startSize=14;endSize=12;exitX=1;exitY=0.5;exitDx=0;exitDy=0;entryX=0;entryY=0.5;entryDx=0;entryDy=0;edgeStyle=orthogonalEdgeStyle;" parent="1" source="dnUBaIv1aMOGEJIHoMsu-32" target="4hPJbG30b4UJLHPw2dgT-128" edge="1">
          <mxGeometry relative="1" as="geometry">
            <mxPoint x="-470" y="530" as="sourcePoint" />
            <mxPoint x="-310" y="530" as="targetPoint" />
          </mxGeometry>
        </mxCell>
        <mxCell id="4hPJbG30b4UJLHPw2dgT-416" value="1" style="resizable=0;html=1;align=right;verticalAlign=bottom;" parent="4hPJbG30b4UJLHPw2dgT-415" connectable="0" vertex="1">
          <mxGeometry x="1" relative="1" as="geometry" />
        </mxCell>
        <mxCell id="4hPJbG30b4UJLHPw2dgT-418" value="" style="endArrow=none;html=1;rounded=0;startSize=14;endSize=12;exitX=0;exitY=0.5;exitDx=0;exitDy=0;entryX=0.75;entryY=1;entryDx=0;entryDy=0;edgeStyle=orthogonalEdgeStyle;" parent="1" source="4hPJbG30b4UJLHPw2dgT-154" target="dnUBaIv1aMOGEJIHoMsu-41" edge="1">
          <mxGeometry relative="1" as="geometry">
            <mxPoint x="-470" y="530" as="sourcePoint" />
            <mxPoint x="-310" y="530" as="targetPoint" />
            <Array as="points">
              <mxPoint x="-280" y="785" />
              <mxPoint x="-280" y="560" />
              <mxPoint x="-675" y="560" />
            </Array>
          </mxGeometry>
        </mxCell>
        <mxCell id="4hPJbG30b4UJLHPw2dgT-419" value="1" style="resizable=0;html=1;align=right;verticalAlign=bottom;" parent="4hPJbG30b4UJLHPw2dgT-418" connectable="0" vertex="1">
          <mxGeometry x="1" relative="1" as="geometry">
            <mxPoint x="15" y="20" as="offset" />
          </mxGeometry>
        </mxCell>
      </root>
    </mxGraphModel>
  </diagram>
  <diagram id="oqSJ4smadgUOl3b_j2C_" name="Page-2">
    <mxGraphModel dx="2151" dy="768" grid="1" gridSize="10" guides="1" tooltips="1" connect="1" arrows="1" fold="1" page="1" pageScale="1" pageWidth="850" pageHeight="1100" math="0" shadow="0">
      <root>
        <mxCell id="Bw9JHuLHImeIyf7hXjcb-0" />
        <mxCell id="Bw9JHuLHImeIyf7hXjcb-1" parent="Bw9JHuLHImeIyf7hXjcb-0" />
        <mxCell id="Bw9JHuLHImeIyf7hXjcb-2" value="ID" style="rounded=0;whiteSpace=wrap;html=1;" vertex="1" parent="Bw9JHuLHImeIyf7hXjcb-1">
          <mxGeometry x="400" y="250" width="120" height="60" as="geometry" />
        </mxCell>
        <mxCell id="Bw9JHuLHImeIyf7hXjcb-3" value="Associate" style="rounded=0;whiteSpace=wrap;html=1;" vertex="1" parent="Bw9JHuLHImeIyf7hXjcb-1">
          <mxGeometry x="110" y="250" width="120" height="60" as="geometry" />
        </mxCell>
        <mxCell id="Bw9JHuLHImeIyf7hXjcb-4" value="Appointment" style="rounded=0;whiteSpace=wrap;html=1;" vertex="1" parent="Bw9JHuLHImeIyf7hXjcb-1">
          <mxGeometry x="150" y="400" width="120" height="60" as="geometry" />
        </mxCell>
        <mxCell id="Bw9JHuLHImeIyf7hXjcb-5" value="Employee" style="rounded=0;whiteSpace=wrap;html=1;" vertex="1" parent="Bw9JHuLHImeIyf7hXjcb-1">
          <mxGeometry x="50" y="561.48" width="120" height="60" as="geometry" />
        </mxCell>
        <mxCell id="Bw9JHuLHImeIyf7hXjcb-7" value="Department" style="rounded=0;whiteSpace=wrap;html=1;" vertex="1" parent="Bw9JHuLHImeIyf7hXjcb-1">
          <mxGeometry x="190" y="756.48" width="120" height="60" as="geometry" />
        </mxCell>
        <mxCell id="Bw9JHuLHImeIyf7hXjcb-8" value="Service" style="rounded=0;whiteSpace=wrap;html=1;" vertex="1" parent="Bw9JHuLHImeIyf7hXjcb-1">
          <mxGeometry x="190" y="856.48" width="120" height="60" as="geometry" />
        </mxCell>
        <mxCell id="Bw9JHuLHImeIyf7hXjcb-9" value="Permission" style="rounded=0;whiteSpace=wrap;html=1;" vertex="1" parent="Bw9JHuLHImeIyf7hXjcb-1">
          <mxGeometry x="50" y="756.48" width="120" height="60" as="geometry" />
        </mxCell>
        <mxCell id="Bw9JHuLHImeIyf7hXjcb-10" value="Extends" style="endArrow=block;endSize=16;endFill=0;html=1;rounded=0;exitX=0.5;exitY=0;exitDx=0;exitDy=0;entryX=0.5;entryY=1;entryDx=0;entryDy=0;edgeStyle=orthogonalEdgeStyle;" edge="1" parent="Bw9JHuLHImeIyf7hXjcb-1" source="Bw9JHuLHImeIyf7hXjcb-5" target="Bw9JHuLHImeIyf7hXjcb-3">
          <mxGeometry width="160" relative="1" as="geometry">
            <mxPoint x="340" y="500" as="sourcePoint" />
            <mxPoint x="500" y="500" as="targetPoint" />
            <Array as="points">
              <mxPoint x="110" y="370" />
              <mxPoint x="170" y="370" />
            </Array>
          </mxGeometry>
        </mxCell>
        <mxCell id="Bw9JHuLHImeIyf7hXjcb-11" value="Customer" style="html=1;" vertex="1" parent="Bw9JHuLHImeIyf7hXjcb-1">
          <mxGeometry x="260" y="566.48" width="110" height="50" as="geometry" />
        </mxCell>
        <mxCell id="Bw9JHuLHImeIyf7hXjcb-12" value="Extends" style="endArrow=block;endSize=16;endFill=0;html=1;rounded=0;exitX=0.5;exitY=0;exitDx=0;exitDy=0;entryX=0.5;entryY=1;entryDx=0;entryDy=0;edgeStyle=orthogonalEdgeStyle;" edge="1" parent="Bw9JHuLHImeIyf7hXjcb-1" source="Bw9JHuLHImeIyf7hXjcb-11" target="Bw9JHuLHImeIyf7hXjcb-3">
          <mxGeometry width="160" relative="1" as="geometry">
            <mxPoint x="360" y="500" as="sourcePoint" />
            <mxPoint x="520" y="500" as="targetPoint" />
            <Array as="points">
              <mxPoint x="315" y="370" />
              <mxPoint x="170" y="370" />
            </Array>
          </mxGeometry>
        </mxCell>
        <mxCell id="Bw9JHuLHImeIyf7hXjcb-13" value="Has" style="endArrow=open;html=1;endSize=12;startArrow=diamondThin;startSize=14;startFill=0;edgeStyle=orthogonalEdgeStyle;rounded=0;entryX=0.5;entryY=1;entryDx=0;entryDy=0;" edge="1" parent="Bw9JHuLHImeIyf7hXjcb-1" source="Bw9JHuLHImeIyf7hXjcb-7" target="Bw9JHuLHImeIyf7hXjcb-5">
          <mxGeometry relative="1" as="geometry">
            <mxPoint x="360" y="596.48" as="sourcePoint" />
            <mxPoint x="520" y="596.48" as="targetPoint" />
            <Array as="points">
              <mxPoint x="250" y="676.48" />
              <mxPoint x="110" y="676.48" />
            </Array>
          </mxGeometry>
        </mxCell>
        <mxCell id="Bw9JHuLHImeIyf7hXjcb-14" value="1..n" style="edgeLabel;resizable=0;html=1;align=left;verticalAlign=top;" connectable="0" vertex="1" parent="Bw9JHuLHImeIyf7hXjcb-13">
          <mxGeometry x="-1" relative="1" as="geometry">
            <mxPoint y="-30" as="offset" />
          </mxGeometry>
        </mxCell>
        <mxCell id="Bw9JHuLHImeIyf7hXjcb-15" value="1..n" style="edgeLabel;resizable=0;html=1;align=right;verticalAlign=top;" connectable="0" vertex="1" parent="Bw9JHuLHImeIyf7hXjcb-13">
          <mxGeometry x="1" relative="1" as="geometry" />
        </mxCell>
        <mxCell id="Bw9JHuLHImeIyf7hXjcb-18" value="Relation" style="endArrow=open;html=1;endSize=12;startArrow=diamondThin;startSize=14;startFill=0;edgeStyle=orthogonalEdgeStyle;rounded=0;exitX=0.25;exitY=1;exitDx=0;exitDy=0;entryX=0.25;entryY=0;entryDx=0;entryDy=0;" edge="1" parent="Bw9JHuLHImeIyf7hXjcb-1" source="Bw9JHuLHImeIyf7hXjcb-5" target="Bw9JHuLHImeIyf7hXjcb-9">
          <mxGeometry relative="1" as="geometry">
            <mxPoint x="280" y="566.48" as="sourcePoint" />
            <mxPoint x="440" y="566.48" as="targetPoint" />
          </mxGeometry>
        </mxCell>
        <mxCell id="Bw9JHuLHImeIyf7hXjcb-19" value="1..n" style="edgeLabel;resizable=0;html=1;align=left;verticalAlign=top;" connectable="0" vertex="1" parent="Bw9JHuLHImeIyf7hXjcb-18">
          <mxGeometry x="-1" relative="1" as="geometry">
            <mxPoint x="-30" as="offset" />
          </mxGeometry>
        </mxCell>
        <mxCell id="Bw9JHuLHImeIyf7hXjcb-20" value="1" style="edgeLabel;resizable=0;html=1;align=right;verticalAlign=top;" connectable="0" vertex="1" parent="Bw9JHuLHImeIyf7hXjcb-18">
          <mxGeometry x="1" relative="1" as="geometry">
            <mxPoint y="-30" as="offset" />
          </mxGeometry>
        </mxCell>
        <mxCell id="Bw9JHuLHImeIyf7hXjcb-25" value="Has&lt;br&gt;" style="endArrow=open;html=1;endSize=12;startArrow=diamondThin;startSize=14;startFill=0;edgeStyle=orthogonalEdgeStyle;rounded=0;exitX=1;exitY=0.5;exitDx=0;exitDy=0;" edge="1" parent="Bw9JHuLHImeIyf7hXjcb-1" source="Bw9JHuLHImeIyf7hXjcb-3" target="Bw9JHuLHImeIyf7hXjcb-2">
          <mxGeometry relative="1" as="geometry">
            <mxPoint x="280" y="470" as="sourcePoint" />
            <mxPoint x="440" y="470" as="targetPoint" />
          </mxGeometry>
        </mxCell>
        <mxCell id="Bw9JHuLHImeIyf7hXjcb-26" value="1" style="edgeLabel;resizable=0;html=1;align=left;verticalAlign=top;" connectable="0" vertex="1" parent="Bw9JHuLHImeIyf7hXjcb-25">
          <mxGeometry x="-1" relative="1" as="geometry" />
        </mxCell>
        <mxCell id="Bw9JHuLHImeIyf7hXjcb-27" value="1..n&lt;br&gt;" style="edgeLabel;resizable=0;html=1;align=right;verticalAlign=top;" connectable="0" vertex="1" parent="Bw9JHuLHImeIyf7hXjcb-25">
          <mxGeometry x="1" relative="1" as="geometry" />
        </mxCell>
        <mxCell id="Bw9JHuLHImeIyf7hXjcb-28" value="Traces" style="endArrow=block;endFill=1;html=1;edgeStyle=orthogonalEdgeStyle;align=left;verticalAlign=top;rounded=0;exitX=0;exitY=0.25;exitDx=0;exitDy=0;entryX=1;entryY=0.25;entryDx=0;entryDy=0;" edge="1" parent="Bw9JHuLHImeIyf7hXjcb-1" source="Bw9JHuLHImeIyf7hXjcb-2" target="Bw9JHuLHImeIyf7hXjcb-3">
          <mxGeometry x="0.0588" y="-15" relative="1" as="geometry">
            <mxPoint x="340" y="460" as="sourcePoint" />
            <mxPoint x="270" y="265" as="targetPoint" />
            <mxPoint as="offset" />
          </mxGeometry>
        </mxCell>
        <mxCell id="Bw9JHuLHImeIyf7hXjcb-29" value="1" style="edgeLabel;resizable=0;html=1;align=left;verticalAlign=bottom;" connectable="0" vertex="1" parent="Bw9JHuLHImeIyf7hXjcb-28">
          <mxGeometry x="-1" relative="1" as="geometry">
            <mxPoint x="-10" as="offset" />
          </mxGeometry>
        </mxCell>
        <mxCell id="Bw9JHuLHImeIyf7hXjcb-33" value="Vehicle" style="html=1;" vertex="1" parent="Bw9JHuLHImeIyf7hXjcb-1">
          <mxGeometry x="260" y="660" width="110" height="50" as="geometry" />
        </mxCell>
        <mxCell id="Bw9JHuLHImeIyf7hXjcb-34" value="" style="endArrow=none;startArrow=none;endFill=0;startFill=0;endSize=8;html=1;verticalAlign=bottom;labelBackgroundColor=none;strokeWidth=3;rounded=0;exitX=0.5;exitY=1;exitDx=0;exitDy=0;entryX=0.5;entryY=0;entryDx=0;entryDy=0;" edge="1" parent="Bw9JHuLHImeIyf7hXjcb-1" source="Bw9JHuLHImeIyf7hXjcb-7" target="Bw9JHuLHImeIyf7hXjcb-8">
          <mxGeometry width="160" relative="1" as="geometry">
            <mxPoint x="370" y="756.48" as="sourcePoint" />
            <mxPoint x="530" y="756.48" as="targetPoint" />
          </mxGeometry>
        </mxCell>
        <mxCell id="Bw9JHuLHImeIyf7hXjcb-35" value="promptType" style="endArrow=block;endFill=1;html=1;edgeStyle=orthogonalEdgeStyle;align=left;verticalAlign=top;rounded=0;exitX=1;exitY=0.5;exitDx=0;exitDy=0;entryX=0.5;entryY=1;entryDx=0;entryDy=0;" edge="1" parent="Bw9JHuLHImeIyf7hXjcb-1" source="Bw9JHuLHImeIyf7hXjcb-8" target="Bw9JHuLHImeIyf7hXjcb-2">
          <mxGeometry x="-1" relative="1" as="geometry">
            <mxPoint x="470" y="610" as="sourcePoint" />
            <mxPoint x="630" y="610" as="targetPoint" />
          </mxGeometry>
        </mxCell>
        <mxCell id="Bw9JHuLHImeIyf7hXjcb-36" value="1" style="edgeLabel;resizable=0;html=1;align=left;verticalAlign=bottom;" connectable="0" vertex="1" parent="Bw9JHuLHImeIyf7hXjcb-35">
          <mxGeometry x="-1" relative="1" as="geometry" />
        </mxCell>
        <mxCell id="Bw9JHuLHImeIyf7hXjcb-40" value="owns" style="endArrow=block;endFill=1;html=1;edgeStyle=orthogonalEdgeStyle;align=left;verticalAlign=top;rounded=0;exitX=0.5;exitY=1;exitDx=0;exitDy=0;entryX=0.5;entryY=0;entryDx=0;entryDy=0;" edge="1" parent="Bw9JHuLHImeIyf7hXjcb-1" source="Bw9JHuLHImeIyf7hXjcb-11" target="Bw9JHuLHImeIyf7hXjcb-33">
          <mxGeometry x="-1" relative="1" as="geometry">
            <mxPoint x="420" y="516.48" as="sourcePoint" />
            <mxPoint x="580" y="516.48" as="targetPoint" />
          </mxGeometry>
        </mxCell>
        <mxCell id="Bw9JHuLHImeIyf7hXjcb-41" value="1" style="edgeLabel;resizable=0;html=1;align=left;verticalAlign=bottom;" connectable="0" vertex="1" parent="Bw9JHuLHImeIyf7hXjcb-40">
          <mxGeometry x="-1" relative="1" as="geometry" />
        </mxCell>
        <mxCell id="Bw9JHuLHImeIyf7hXjcb-42" value="0..n" style="edgeLabel;html=1;align=center;verticalAlign=middle;resizable=0;points=[];" vertex="1" connectable="0" parent="Bw9JHuLHImeIyf7hXjcb-40">
          <mxGeometry x="0.823" y="-2" relative="1" as="geometry">
            <mxPoint x="1" y="3" as="offset" />
          </mxGeometry>
        </mxCell>
        <mxCell id="Bw9JHuLHImeIyf7hXjcb-43" value="" style="endArrow=open;endFill=1;endSize=12;html=1;rounded=0;exitX=0.25;exitY=0;exitDx=0;exitDy=0;entryX=0.5;entryY=1;entryDx=0;entryDy=0;edgeStyle=orthogonalEdgeStyle;" edge="1" parent="Bw9JHuLHImeIyf7hXjcb-1" source="Bw9JHuLHImeIyf7hXjcb-11" target="Bw9JHuLHImeIyf7hXjcb-4">
          <mxGeometry width="160" relative="1" as="geometry">
            <mxPoint x="420" y="560" as="sourcePoint" />
            <mxPoint x="580" y="560" as="targetPoint" />
            <Array as="points">
              <mxPoint x="230" y="567" />
              <mxPoint x="210" y="567" />
            </Array>
          </mxGeometry>
        </mxCell>
        <mxCell id="Bw9JHuLHImeIyf7hXjcb-44" value="Schedules" style="edgeLabel;html=1;align=center;verticalAlign=middle;resizable=0;points=[];" vertex="1" connectable="0" parent="Bw9JHuLHImeIyf7hXjcb-43">
          <mxGeometry x="-0.2112" relative="1" as="geometry">
            <mxPoint as="offset" />
          </mxGeometry>
        </mxCell>
        <mxCell id="Bw9JHuLHImeIyf7hXjcb-48" value="1" style="endArrow=open;html=1;endSize=12;startArrow=diamondThin;startSize=14;startFill=0;edgeStyle=orthogonalEdgeStyle;align=left;verticalAlign=bottom;rounded=0;exitX=0.75;exitY=1;exitDx=0;exitDy=0;entryX=0.75;entryY=0;entryDx=0;entryDy=0;" edge="1" parent="Bw9JHuLHImeIyf7hXjcb-1" source="Bw9JHuLHImeIyf7hXjcb-4" target="Bw9JHuLHImeIyf7hXjcb-11">
          <mxGeometry x="-1" y="3" relative="1" as="geometry">
            <mxPoint x="460" y="510" as="sourcePoint" />
            <mxPoint x="620" y="510" as="targetPoint" />
          </mxGeometry>
        </mxCell>
        <mxCell id="Bw9JHuLHImeIyf7hXjcb-52" value="1" style="endArrow=open;html=1;endSize=12;startArrow=diamondThin;startSize=14;startFill=0;edgeStyle=orthogonalEdgeStyle;align=left;verticalAlign=bottom;rounded=0;exitX=0.25;exitY=1;exitDx=0;exitDy=0;" edge="1" parent="Bw9JHuLHImeIyf7hXjcb-1" source="Bw9JHuLHImeIyf7hXjcb-4" target="Bw9JHuLHImeIyf7hXjcb-5">
          <mxGeometry x="-1" y="3" relative="1" as="geometry">
            <mxPoint x="460" y="510" as="sourcePoint" />
            <mxPoint x="620" y="510" as="targetPoint" />
          </mxGeometry>
        </mxCell>
        <mxCell id="Bw9JHuLHImeIyf7hXjcb-53" value="Supervisor" style="html=1;" vertex="1" parent="Bw9JHuLHImeIyf7hXjcb-1">
          <mxGeometry x="-130" y="571.48" width="110" height="50" as="geometry" />
        </mxCell>
        <mxCell id="Bw9JHuLHImeIyf7hXjcb-54" value="Extends" style="endArrow=block;endSize=16;endFill=0;html=1;rounded=0;exitX=1;exitY=0.5;exitDx=0;exitDy=0;" edge="1" parent="Bw9JHuLHImeIyf7hXjcb-1" source="Bw9JHuLHImeIyf7hXjcb-53">
          <mxGeometry width="160" relative="1" as="geometry">
            <mxPoint x="270" y="600" as="sourcePoint" />
            <mxPoint x="50" y="596" as="targetPoint" />
          </mxGeometry>
        </mxCell>
        <mxCell id="Bw9JHuLHImeIyf7hXjcb-56" value="" style="endArrow=open;endFill=1;endSize=12;html=1;rounded=0;exitX=0.5;exitY=0;exitDx=0;exitDy=0;entryX=0.25;entryY=0;entryDx=0;entryDy=0;edgeStyle=orthogonalEdgeStyle;" edge="1" parent="Bw9JHuLHImeIyf7hXjcb-1" source="Bw9JHuLHImeIyf7hXjcb-53" target="Bw9JHuLHImeIyf7hXjcb-5">
          <mxGeometry width="160" relative="1" as="geometry">
            <mxPoint x="-160" y="540" as="sourcePoint" />
            <mxPoint y="540" as="targetPoint" />
            <Array as="points">
              <mxPoint x="-75" y="520" />
              <mxPoint x="80" y="520" />
            </Array>
          </mxGeometry>
        </mxCell>
        <mxCell id="Bw9JHuLHImeIyf7hXjcb-57" value="Supervises&lt;br&gt;" style="text;html=1;align=center;verticalAlign=middle;resizable=0;points=[];autosize=1;strokeColor=none;fillColor=none;" vertex="1" parent="Bw9JHuLHImeIyf7hXjcb-1">
          <mxGeometry x="-45" y="500" width="70" height="20" as="geometry" />
        </mxCell>
        <mxCell id="Bw9JHuLHImeIyf7hXjcb-59" value="Generates" style="endArrow=block;endFill=1;html=1;edgeStyle=orthogonalEdgeStyle;align=left;verticalAlign=top;rounded=0;startSize=14;endSize=12;entryX=0.25;entryY=1;entryDx=0;entryDy=0;" edge="1" parent="Bw9JHuLHImeIyf7hXjcb-1" target="Bw9JHuLHImeIyf7hXjcb-2">
          <mxGeometry x="-1" relative="1" as="geometry">
            <mxPoint x="270" y="429.58000000000004" as="sourcePoint" />
            <mxPoint x="430" y="429.58000000000004" as="targetPoint" />
          </mxGeometry>
        </mxCell>
        <mxCell id="Bw9JHuLHImeIyf7hXjcb-60" value="1" style="edgeLabel;resizable=0;html=1;align=left;verticalAlign=bottom;" connectable="0" vertex="1" parent="Bw9JHuLHImeIyf7hXjcb-59">
          <mxGeometry x="-1" relative="1" as="geometry">
            <mxPoint x="10" y="-10" as="offset" />
          </mxGeometry>
        </mxCell>
        <mxCell id="Bw9JHuLHImeIyf7hXjcb-65" value="0..1" style="edgeLabel;html=1;align=center;verticalAlign=middle;resizable=0;points=[];" vertex="1" connectable="0" parent="Bw9JHuLHImeIyf7hXjcb-59">
          <mxGeometry x="0.7989" y="-2" relative="1" as="geometry">
            <mxPoint x="-12" as="offset" />
          </mxGeometry>
        </mxCell>
      </root>
    </mxGraphModel>
  </diagram>
</mxfile>
